<?xml version="1.0" encoding="utf-8"?>
<svg width="2158" height="1371" viewBox="0 0 2158 1371" xmlns="http://www.w3.org/2000/svg">
  <g fill="none" fill-rule="evenodd" transform="translate(-1 4)">
    <g transform="translate(.605 .16)">
      <g fill-rule="nonzero" transform="translate(0 59)">
        <polyline fill="#01BA5C" points="1767.118 .1 391.881 .1 .7 1307.3 2158.299 1307.3 1767.118 .1"/>
        <g fill="#00AE55" transform="translate(35.016 56)">
          <path d="M1043.78323,737.5 C994.860584,737.5 947.938861,745.3 904.818898,759.5 C861.298749,773.8 821.08013,794.8 786.264011,821.1 C750.847615,847.9 720.633627,880.3 697.923113,917.2 C674.712367,954.9 659.105141,997.4 653.802686,1043.2 C651.701714,1061.5 651.301528,1079.7 652.502084,1097.6 C653.70264,1115.7 656.603983,1133.5 661.106068,1150.9 C665.608152,1168.5 671.710977,1185.7 679.314497,1202.3 C687.018064,1219.1 696.222325,1235.2 706.827235,1250.7 L984.555813,1250.7 C974.05095,1248.3 963.846225,1245.2 953.94164,1241.5 C944.037054,1237.8 934.432608,1233.5 925.228346,1228.7 C916.024085,1223.8 907.220009,1218.4 898.816119,1212.4 C890.412228,1206.4 882.508569,1199.9 875.005095,1192.9 C864,1182.5 854.395553,1171.4 846.191755,1159.6 C838.088004,1147.9 831.3849,1135.6 826.282538,1122.8 C821.180176,1110.1 817.478462,1097 815.37749,1083.7 C813.276517,1070.4 812.676239,1056.9 813.576656,1043.3 C814.477073,1029.8 816.878184,1016.6 820.679944,1003.8 C824.481704,991.2 829.584067,978.9 835.987031,967.3 C842.389995,955.7 849.993516,944.7 858.897638,934.4 C867.701714,924.1 877.606299,914.6 888.71144,905.8 C899.516443,897.2 911.021769,889.6 923.127374,883.1 C935.232978,876.6 947.838814,871.1 960.944882,866.7 C974.05095,862.3 987.557202,858.9 1001.36359,856.7 C1015.16999,854.5 1029.37656,853.3 1043.78323,853.3 C1058.1899,853.3 1072.29643,854.4 1086.20287,856.7 C1100.10931,858.9 1113.61556,862.3 1126.72163,866.7 C1139.8277,871.1 1152.53358,876.6 1164.53914,883.1 C1176.64474,889.6 1188.15007,897.2 1198.95507,905.8 C1210.06021,914.6 1219.9648,924.2 1228.76887,934.4 C1237.57295,944.7 1245.27652,955.7 1251.67948,967.3 C1258.08245,978.9 1263.28485,991.1 1267.08661,1003.8 C1270.88837,1016.5 1273.28949,1029.7 1274.28995,1043.3 C1275.19037,1056.9 1274.59009,1070.4 1272.48912,1083.7 C1270.38814,1097.1 1266.68643,1110.2 1261.58407,1122.8 C1256.38166,1135.6 1249.7786,1147.9 1241.67485,1159.6 C1233.5711,1171.4 1223.8666,1182.6 1212.86151,1192.9 C1205.45808,1199.9 1197.45438,1206.4 1189.05049,1212.4 C1180.6466,1218.4 1171.84252,1223.8 1162.63826,1228.7 C1153.434,1233.6 1143.82955,1237.8 1133.92497,1241.5 C1124.02038,1245.2 1113.81566,1248.2 1103.31079,1250.7 L1381.03937,1250.7 C1391.64428,1235.2 1400.84854,1219.1 1408.45206,1202.3 C1416.05558,1185.7 1422.15841,1168.5 1426.66049,1150.9 C1431.06253,1133.5 1433.96387,1115.7 1435.16443,1097.6 C1436.36498,1079.7 1435.9648,1061.5 1433.86383,1043.2 C1428.56137,997.4 1412.95415,954.9 1389.64335,917.2 C1366.93284,880.3 1336.71885,847.9 1301.30245,821.1 C1266.48634,794.8 1226.26772,773.8 1182.74757,759.5 C1139.62761,745.2 1092.80593,737.5 1043.78323,737.5"/>
          <path d="M1043.78323,529 C961.445113,529 882.308476,541.2 808.874479,563.6 C734.239926,586.4 664.407596,619.9 602.378879,662.5 C538.549328,706.3 482.423344,760.2 437.802686,822.4 C391.381195,887.1 356.965262,961.4 339.857341,1043.2 C336.255674,1060.4 333.454377,1077.6 331.553497,1094.7 C329.552571,1112 328.452061,1129.3 328.051876,1146.6 C327.751737,1164 328.251969,1181.4 329.552571,1198.7 C330.853173,1216.1 333.054192,1233.5 335.955535,1250.7 L517.539602,1250.7 C517.239463,1249.7 516.839277,1248.7 516.539138,1247.7 C516.239,1246.7 515.838814,1245.7 515.538675,1244.7 C515.238536,1243.7 514.838351,1242.7 514.538212,1241.7 C514.238073,1240.7 513.937934,1239.7 513.537749,1238.7 C508.435387,1222.4 504.333488,1206.1 501.232052,1189.6 C498.130616,1173.3 496.029643,1156.9 494.929134,1140.5 C493.828624,1124.2 493.628532,1108 494.428902,1091.7 C495.229273,1075.6 496.93006,1059.4 499.531264,1043.3 C502.132469,1027.3 505.534044,1011.7 509.836035,996.3 C514.037981,981.1 519.140343,966.1 524.943029,951.4 C530.745716,936.9 537.348773,922.6 544.652154,908.7 C551.955535,894.9 559.95924,881.4 568.763316,868.2 C577.167207,855.6 586.171376,843.4 595.675776,831.7 C605.180176,820 615.184808,808.8 625.789717,798 C636.294581,787.3 647.299676,776.9 658.905049,767 C670.410375,757.2 682.415933,747.7 694.821677,738.7 C707.22742,729.8 719.933302,721.4 732.939324,713.6 C745.845299,705.8 759.151459,698.5 772.757758,691.8 C786.264011,685.1 800.070403,678.9 814.176934,673.2 C828.283465,667.5 842.590088,662.4 857.19685,657.8 C872.203798,653 887.410838,648.9 902.717925,645.3 C918.025012,641.7 933.432145,638.8 949.03937,636.4 C964.546549,634 980.253821,632.3 996.061139,631.1 C1011.86846,629.9 1027.77582,629.3 1043.78323,629.3 C1059.79064,629.3 1075.69801,629.9 1091.50533,631.1 C1107.31264,632.3 1123.01992,634.1 1138.5271,636.4 C1154.13432,638.8 1169.54145,641.7 1184.84854,645.3 C1200.15563,648.9 1215.36267,653 1230.36962,657.8 C1244.97638,662.4 1259.38305,667.6 1273.38953,673.2 C1287.49606,678.9 1301.30245,685.1 1314.80871,691.8 C1328.41501,698.6 1341.62112,705.8 1354.62714,713.6 C1367.63316,721.4 1380.33905,729.8 1392.74479,738.7 C1405.25058,747.7 1417.25614,757.1 1428.76146,767 C1440.36684,776.9 1451.37193,787.2 1461.87679,798 C1472.4817,808.8 1482.48634,820.1 1491.99074,831.7 C1501.49514,843.4 1510.49931,855.6 1518.9032,868.2 C1527.70727,881.4 1535.71098,894.9 1543.01436,908.7 C1550.41779,922.6 1556.9208,936.8 1562.72348,951.4 C1568.62622,966.1 1573.62853,981 1577.83048,996.3 C1582.13247,1011.7 1585.53404,1027.4 1588.13525,1043.3 C1590.73645,1059.4 1592.43724,1075.5 1593.23761,1091.7 C1594.03798,1108 1593.83789,1124.3 1592.73738,1140.5 C1591.63687,1156.9 1589.5359,1173.3 1586.43446,1189.6 C1583.33302,1206.1 1579.23113,1222.4 1574.12876,1238.7 C1573.82862,1239.7 1573.52849,1240.7 1573.1283,1241.7 C1572.82816,1242.7 1572.42798,1243.7 1572.12784,1244.7 C1571.8277,1245.7 1571.42751,1246.7 1571.12737,1247.7 C1570.82723,1248.7 1570.42705,1249.7 1570.12691,1250.7 L1751.71098,1250.7 C1754.71237,1233.5 1756.81334,1216.2 1758.11394,1198.7 C1759.41454,1181.4 1759.91478,1164.1 1759.51459,1146.6 C1759.21445,1129.3 1758.0139,1112 1756.01297,1094.7 C1754.01204,1077.5 1751.21075,1060.4 1747.60908,1043.2 C1730.40111,961.4 1695.98518,887.1 1649.56369,822.4 C1604.94303,760.3 1548.61695,706.4 1484.88745,662.5 C1422.85873,619.9 1353.0264,586.4 1278.39185,563.6 C1205.15794,541.2 1126.02131,529 1043.78323,529"/>
          <path d="M1043.68319,347.2 C950.640111,347.2 860.498379,358 774.958777,378.1 C688.118573,398.5 604.779991,428.9 527.244094,467.9 C447.407133,508 372.672534,557.8 305.841593,616.2 C236.209356,677 174.480778,747.7 124.457619,827.3 L0.700324224,1250.6 L164.276054,1250.6 C163.375637,1232.9 163.175544,1215.2 163.675776,1197.5 C164.176007,1180 165.276517,1162.6 167.177397,1145.2 C168.978231,1128 171.379342,1110.8 174.480778,1093.7 C177.482168,1076.8 181.183881,1059.9 185.485873,1043.2 C191.888837,1018.2 199.492358,993.8 208.39648,969.9 C217.100509,946.4 227.005095,923.4 238.110236,901.1 C249.015285,879 261.020843,857.5 274.126911,836.6 C287.032886,815.9 301.03937,795.8 316.046318,776.2 C323.149606,766.9 330.553034,757.7 338.156554,748.7 C345.660028,739.7 353.463641,730.9 361.467346,722.3 C369.371005,713.7 377.474757,705.2 385.778601,697 C394.082446,688.8 402.486336,680.7 411.09032,672.8 C419.594257,665 428.19824,657.4 437.102362,650 C445.906438,642.6 454.81056,635.3 463.914775,628.3 C473.01899,621.3 482.223252,614.4 491.527559,607.7 C500.831867,601 510.336267,594.6 519.840667,588.3 C529.345067,582 539.04956,576 548.854099,570 C558.558592,564.1 568.463177,558.4 578.467809,552.9 C588.372395,547.4 598.477073,542.1 608.681797,536.9 C618.786475,531.8 628.9912,526.9 639.29597,522.1 C649.600741,517.3 660.105604,512.8 670.610468,508.4 C681.115331,504 691.720241,499.8 702.425197,495.8 C713.030107,491.8 723.835109,488 734.540065,484.4 C745.345067,480.8 756.150069,477.4 766.955072,474.2 C789.465493,467.6 812.075961,461.8 834.886522,456.9 C857.597036,452 880.507642,447.9 903.518296,444.6 C926.528949,441.3 949.639648,438.9 973.050486,437.3 C996.361278,435.7 1019.87216,434.9 1043.48309,434.9 C1067.09403,434.9 1090.60491,435.7 1113.9157,437.3 C1137.22649,438.9 1160.43724,441.4 1183.44789,444.6 C1206.45855,447.9 1229.36915,452 1252.07967,456.9 C1274.89023,461.8 1297.60074,467.6 1320.01112,474.2 C1330.91616,477.4 1341.72117,480.8 1352.42612,484.4 C1363.23113,488 1373.93608,491.8 1384.54099,495.8 C1395.24595,499.8 1405.85086,504 1416.35572,508.4 C1426.86058,512.8 1437.36545,517.4 1447.67022,522.1 C1457.97499,526.8 1468.17971,531.8 1478.28439,536.9 C1488.48912,542 1498.49375,547.4 1508.49838,552.9 C1518.50301,558.4 1528.4076,564.1 1538.11209,570 C1547.91663,575.9 1557.62112,582 1567.12552,588.3 C1576.72997,594.6 1586.13432,601.1 1595.43863,607.7 C1604.84298,614.4 1614.04724,621.3 1623.05141,628.3 C1632.15563,635.4 1641.1598,642.6 1649.96387,650 C1658.76795,657.4 1667.47198,665.1 1675.97591,672.8 C1684.5799,680.7 1693.08384,688.8 1701.28763,697 C1709.59148,705.3 1717.69523,713.7 1725.59889,722.3 C1733.60259,731 1741.30616,739.8 1748.90968,748.7 C1756.5132,757.7 1763.91663,766.9 1771.01992,776.2 C1786.02686,795.8 1800.03335,815.9 1813.03937,836.6 C1826.14544,857.5 1838.25104,879.1 1849.15609,901.1 C1860.26123,923.5 1870.16582,946.4 1878.96989,969.9 C1887.87402,993.7 1895.47754,1018.2 1901.8805,1043.2 C1906.18249,1060 1909.88421,1076.8 1912.8856,1093.7 C1915.98703,1110.8 1918.38814,1128 1920.28902,1145.2 C1922.08986,1162.6 1923.29041,1180 1923.79064,1197.5 C1924.29088,1215.2 1924.09078,1232.9 1923.29041,1250.6 L2084.26494,1250.6 L1958.60676,820.6 C1908.28346,742.2 1846.55489,672.4 1777.22279,612.5 C1710.59194,554.9 1636.15748,505.8 1556.7207,466.2 C1479.48495,427.7 1396.6466,397.8 1310.40667,377.6 C1225.66744,357.9 1136.12598,347.2 1043.68319,347.2"/>
          <path d="M1043.58314,187.2 C971.149606,187.2 900.216767,192.2 831.284854,201.7 C761.752663,211.3 693.721167,225.6 627.690597,244.3 C560.659565,263.2 495.329319,286.7 432.200093,314.4 C367.770264,342.7 305.241315,375.7 245.61371,413 L200.292728,568.1 C201.293191,567.2 202.393701,566.3 203.394164,565.4 C204.394627,564.5 205.495137,563.6 206.4956,562.7 C207.496063,561.8 208.596572,560.9 209.597036,560.1 C210.597499,559.2 211.698008,558.3 212.798518,557.5 C224.603983,547.7 236.609541,538.1 248.815192,528.8 C260.920797,519.5 273.226494,510.4 285.732283,501.6 C298.138027,492.8 310.643817,484.2 323.349699,475.9 C335.955535,467.6 348.761464,459.6 361.667439,451.8 C374.473367,444 387.479389,436.5 400.585456,429.2 C413.591478,421.9 426.797591,414.9 440.103752,408.1 C453.309866,401.3 466.716072,394.8 480.122279,388.5 C493.528485,382.2 507.034738,376.2 520.540991,370.4 C534.14729,364.6 547.953682,359 561.760074,353.6 C575.566466,348.3 589.372858,343.2 603.379342,338.3 C617.28578,333.5 631.292265,328.8 645.298749,324.5 C659.305234,320.1 673.411765,316 687.518296,312.1 C701.824919,308.2 716.231589,304.5 730.638258,301 C745.044928,297.6 759.551644,294.4 774.05836,291.4 C788.565076,288.4 803.171839,285.7 817.778601,283.3 C832.385364,280.8 846.992126,278.6 861.598888,276.6 C876.605836,274.6 891.612784,272.8 906.819824,271.3 C921.926818,269.8 937.033812,268.5 952.240852,267.5 C967.447893,266.5 982.654933,265.7 997.861973,265.2 C1013.06901,264.7 1028.3761,264.4 1043.58314,264.4 C1058.79018,264.4 1074.09727,264.7 1089.30431,265.2 C1104.51135,265.7 1119.71839,266.5 1134.92543,267.5 C1150.13247,268.5 1165.23946,269.8 1180.34646,271.3 C1195.45345,272.8 1210.56044,274.6 1225.56739,276.6 C1240.17415,278.6 1254.78092,280.8 1269.38768,283.3 C1283.99444,285.8 1298.6012,288.5 1313.10792,291.4 C1327.61464,294.4 1342.12135,297.6 1356.62807,301 C1371.13478,304.4 1385.54145,308.1 1399.84808,312.1 C1413.95461,316 1428.06114,320.1 1442.06762,324.5 C1456.07411,328.9 1470.08059,333.5 1483.98703,338.3 C1497.99352,343.2 1511.79991,348.3 1525.6063,353.6 C1539.41269,359 1553.21908,364.5 1566.82538,370.4 C1580.43168,376.2 1593.93793,382.2 1607.34414,388.5 C1620.85039,394.8 1634.15655,401.3 1647.36267,408.1 C1660.66883,414.9 1673.87494,421.9 1686.88096,429.2 C1699.98703,436.5 1712.99305,444 1725.79898,451.8 C1738.70496,459.6 1751.51088,467.7 1764.11672,475.9 C1776.8226,484.2 1789.42844,492.8 1801.83418,501.6 C1814.33997,510.4 1826.64567,519.5 1838.75127,528.8 C1850.95692,538.2 1862.96248,547.7 1874.76795,557.5 C1875.56832,558.2 1876.36869,558.9 1877.26911,559.5 C1878.06948,560.2 1878.86985,560.9 1879.77026,561.6 C1880.57063,562.3 1881.37101,563 1882.27142,563.7 C1883.07179,564.4 1883.87216,565.1 1884.67253,565.8 L1839.55164,411.6 C1780.02409,374.5 1717.69523,341.8 1653.36545,313.7 C1590.43631,286.2 1525.20611,262.8 1458.37517,244.1 C1392.5447,225.6 1324.71329,211.4 1255.38119,201.8 C1186.54933,192.2 1115.81658,187.2 1043.58314,187.2"/>
          <path d="M1043.58314,45.4 C978.853173,45.4 915.223715,48.6 852.794812,54.8 C790.065771,61.1 728.237147,70.4 667.609078,82.6 C606.380732,94.9 546.052802,110.2 486.825382,128.4 C426.797591,146.8 367.670218,168.3 309.843446,192.6 L280.12969,294.2 C291.134785,288.7 302.13988,283.2 313.245021,277.9 C324.350162,272.6 335.455303,267.5 346.560445,262.4 C357.665586,257.4 368.870774,252.5 380.075961,247.8 C391.281149,243.1 402.38629,238.5 413.691524,234 C430.399259,227.4 447.106994,221 464.014822,214.9 C480.822603,208.8 497.730431,203 514.638258,197.5 C531.546086,192 548.453914,186.8 565.461788,181.8 C582.369616,176.9 599.37749,172.2 616.48541,167.8 C633.793423,163.3 651.101436,159.2 668.509495,155.3 C685.917554,151.4 703.325614,147.8 720.833719,144.4 C738.241779,141.1 755.749884,138 773.25799,135.2 C790.766095,132.4 808.274201,129.9 825.782307,127.7 C843.690597,125.4 861.798981,123.4 879.907365,121.7 C898.015748,120 916.124132,118.6 934.232515,117.4 C952.340899,116.3 970.549328,115.4 988.757758,114.8 C1006.96619,114.2 1025.17462,113.9 1043.38305,113.9 C1061.59148,113.9 1079.79991,114.2 1098.00834,114.8 C1116.21677,115.4 1134.4252,116.2 1152.53358,117.4 C1170.64196,118.5 1188.85039,120 1206.85873,121.7 C1224.96711,123.4 1242.97545,125.4 1260.98379,127.7 C1278.49189,129.9 1296,132.4 1313.50811,135.2 C1331.01621,138 1348.52432,141 1365.93238,144.4 C1383.44048,147.7 1400.84854,151.4 1418.2566,155.3 C1435.66466,159.2 1453.07272,163.4 1470.38073,167.8 C1487.38861,172.2 1504.39648,176.9 1521.40435,181.8 C1538.41223,186.8 1555.4201,192 1572.32793,197.5 C1589.3358,203 1606.14358,208.8 1622.95137,214.9 C1639.85919,221 1656.66698,227.4 1673.27466,234 C1684.27976,238.4 1695.3849,242.9 1706.28995,247.6 C1717.29504,252.3 1728.30014,257.1 1739.20519,262 C1750.21028,266.9 1761.11533,272 1772.02038,277.2 C1782.92543,282.4 1793.83048,287.7 1804.63548,293.2 L1775.02177,191.8 C1717.39509,167.6 1658.36776,146.3 1598.54006,128 C1539.51274,110 1479.3849,94.7 1418.2566,82.5 C1357.82862,70.4 1296.20009,61.1 1233.67114,54.9 C1171.54238,48.6 1108.11302,45.4 1043.58314,45.4 M751.848078,0.5 L439.003242,0.5 C432.300139,2.3 425.697082,4.2 418.993979,6.1 C412.290875,8 405.687818,9.9 399.084761,11.9 C392.481704,13.9 385.778601,15.9 379.175544,17.9 C372.572487,19.9 365.869384,22 359.266327,24.1 L335.855489,104.1 C353.863826,97.6 371.972209,91.3 390.080593,85.3 C408.08893,79.3 426.29736,73.6 444.405743,68.1 C462.514127,62.6 480.62251,57.4 498.83094,52.5 C516.939324,47.6 535.047707,42.9 553.256137,38.5 C569.76378,34.5 586.271422,30.7 602.779064,27.1 C619.286707,23.5 635.894396,20.2 652.402038,17 C668.90968,13.8 685.517369,10.9 702.125058,8.1 C718.732747,5.4 735.240389,2.9 751.848078,0.5 M1648.06299,0.5 L1335.21816,0.5 C1351.82585,2.8 1368.43353,5.4 1384.94118,8.1 C1401.54887,10.9 1418.15655,13.8 1434.6642,17 C1451.27189,20.2 1467.77953,23.5 1484.28717,27.1 C1500.89486,30.7 1517.4025,34.5 1533.8101,38.5 C1551.81843,42.9 1569.82677,47.5 1587.73506,52.4 C1605.7434,57.3 1623.75174,62.4 1641.66003,67.8 C1659.66836,73.2 1677.6767,78.9 1695.58499,84.8 C1713.59333,90.8 1731.50162,97 1749.30987,103.4 L1725.99907,23.5 C1719.49606,21.5 1712.99305,19.4 1706.59009,17.5 C1700.08708,15.5 1693.58407,13.6 1687.08106,11.6 C1680.57805,9.7 1674.07503,7.8 1667.57202,5.9 C1661.16906,4.1 1654.66605,2.3 1648.06299,0.5"/>
        </g>
        <path fill="#FFF" d="M1755.21292,57.1 L402.086477,57.1 L36.6172779,1307.2 L44.520937,1307.2 L103.848403,1102.5 L839.589024,1102.5 C838.388468,1125.2 841.58995,1147.3 848.493146,1168.2 C855.496389,1189.4 866.301391,1209.3 880.407922,1227.3 C894.614499,1245.5 912.222651,1261.7 932.331961,1275.2 C952.641363,1288.8 975.652016,1299.7 1000.56355,1307.2 L1037.48064,1307.2 C1009.06749,1302.7 982.555212,1293.8 958.744189,1281.2 C935.133258,1268.7 914.523716,1252.8 897.515842,1234.3 C880.708061,1216 867.702039,1195.1 859.198102,1172.7 C850.794212,1150.6 846.792359,1126.9 847.992915,1102.5 L1052.88777,1102.5 C1053.38801,1105.2 1054.38847,1107.8 1055.88916,1110.1 C1057.38986,1112.4 1059.39078,1114.5 1061.69185,1116.2 C1063.99291,1117.9 1066.69417,1119.3 1069.59551,1120.3 C1072.49685,1121.3 1075.69833,1121.8 1078.99986,1121.8 C1082.30139,1121.8 1085.50287,1121.3 1088.40422,1120.3 C1091.30556,1119.3 1094.00681,1118 1096.30788,1116.2 C1098.60894,1114.5 1100.60987,1112.4 1102.11056,1110.1 C1103.61126,1107.8 1104.61172,1105.2 1105.11195,1102.5 L1310.00681,1102.5 C1311.20737,1126.9 1307.20551,1150.6 1298.80162,1172.7 C1290.29769,1195.1 1277.29166,1216 1260.48388,1234.3 C1243.57606,1252.8 1222.86647,1268.8 1199.35558,1281.2 C1175.64461,1293.7 1149.03228,1302.7 1120.71918,1307.2 L1157.63627,1307.2 C1182.5478,1299.7 1205.45841,1288.8 1225.86786,1275.2 C1246.07721,1261.7 1263.58532,1245.5 1277.7919,1227.3 C1291.89843,1209.3 1302.70343,1189.4 1309.70667,1168.2 C1316.60987,1147.3 1319.7113,1125.2 1318.61079,1102.5 L2054.35141,1102.5 L2113.77893,1307.2 L2120.58208,1307.2 L1755.21292,57.1 Z M1751.51121,59.7 L1760.01515,89.2 C1753.31204,88.9 1746.80903,87.8 1740.70621,86.2 C1734.60338,84.6 1728.8007,82.4 1723.69833,79.8 C1718.59597,77.2 1714.09389,74.1 1710.49222,70.7 C1706.89055,67.3 1704.1893,63.7 1702.58856,59.8 L1751.51121,59.8 L1751.51121,59.7 Z M911.022095,59.7 L1246.87758,59.7 L1250.47925,109 L907.520474,109 L911.022095,59.7 Z M905.219409,59.7 L901.217556,112.6 L1256.78217,112.6 L1252.78032,59.7 L1382.84053,59.7 L1395.7465,157.9 L762.25322,157.9 L775.159195,59.7 L905.219409,59.7 L905.219409,59.7 Z M1195.25368,161.8 C1190.85165,169.2 1184.74882,176 1177.1453,182 C1169.54178,188.1 1160.43757,193.4 1150.33289,197.8 C1140.12816,202.2 1128.82293,205.7 1116.81737,208.1 C1104.81181,210.5 1092.10593,211.8 1078.99986,211.8 C1065.89379,211.8 1053.18791,210.5 1041.18235,208.1 C1029.1768,205.7 1017.87156,202.2 1007.66684,197.8 C997.462113,193.4 988.457945,188.1 980.854425,182 C973.250905,175.9 967.148079,169.1 962.746041,161.8 L1195.25368,161.8 L1195.25368,161.8 Z M406.488515,59.7 L455.51121,59.7 C453.910469,63.6 451.209219,67.3 447.607551,70.6 C444.005884,74 439.503799,77.1 434.401437,79.7 C429.299075,82.3 423.496389,84.5 417.393563,86.1 C411.190692,87.7 404.687681,88.8 397.984578,89.1 L406.488515,59.7 Z M1105.11195,1095.3 C1104.61172,1092.6 1103.51121,1090.1 1102.01052,1087.8 C1100.50982,1085.5 1098.50889,1083.5 1096.20783,1081.8 C1093.90676,1080.1 1091.30556,1078.8 1088.40422,1077.8 C1085.50287,1076.9 1082.40144,1076.4 1079.19996,1076.4 C1075.99847,1076.4 1072.79699,1076.9 1069.99569,1077.8 C1067.09435,1078.7 1064.49315,1080.1 1062.19208,1081.8 C1059.89102,1083.5 1057.89009,1085.5 1056.38939,1087.8 C1054.8887,1090.1 1053.78819,1092.6 1053.28796,1095.3 L848.693239,1095.3 C851.094351,1068.6 859.498241,1043.5 872.604309,1021 C885.510284,998.8 903.118436,979.2 923.92807,962.8 C944.637658,946.6 968.648774,933.6 994.860909,924.7 C1020.973,915.8 1049.38615,911 1079.09991,911 C1108.81367,911 1137.22682,915.9 1163.33891,924.7 C1189.55104,933.6 1213.56216,946.6 1234.27175,962.8 C1255.18143,979.1 1272.68953,998.8 1285.59551,1021 C1298.70158,1043.5 1307.20551,1068.5 1309.60662,1095.3 L1105.11195,1095.3 Z M1318.11056,1095.3 C1315.6094,1067.6 1306.80533,1041.6 1293.09898,1018.4 C1279.59273,995.5 1261.48435,975.1 1239.7743,958.2 C1218.36438,941.5 1193.45285,928.1 1166.24025,918.9 C1139.22775,909.8 1109.81413,904.7 1079.09991,904.7 C1048.38569,904.7 1018.97207,909.7 991.959566,918.9 C964.746968,928.1 939.935481,941.5 918.425522,958.2 C896.815518,975.1 878.607088,995.5 865.100835,1018.4 C851.494536,1041.7 842.69046,1067.6 840.089256,1095.3 L106.049422,1095.3 L396.884068,92.7 C404.387542,92.4 411.790969,91.2 418.694165,89.4 C425.597361,87.6 432.100372,85.1 437.903058,82.2 C443.605698,79.2 448.708061,75.8 452.709913,72 C456.711766,68.2 459.713156,64.1 461.513989,59.7 L769.356509,59.7 L755.75021,161.6 L956.243031,161.6 C960.645069,169.6 966.947987,176.9 974.851646,183.5 C982.855351,190.1 992.359751,195.9 1003.16475,200.6 C1013.96976,205.4 1025.97531,209.2 1038.78124,211.8 C1051.58717,214.4 1065.19347,215.8 1079.19996,215.8 C1093.20644,215.8 1106.81274,214.4 1119.61867,211.8 C1132.4246,209.2 1144.43015,205.4 1155.23516,200.6 C1166.04016,195.8 1175.54456,190 1183.54826,183.5 C1191.45192,176.9 1197.75484,169.6 1202.15688,161.6 L1402.6497,161.6 L1389.0434,59.7 L1696.78587,59.7 C1698.48666,64 1701.48805,68.2 1705.4899,72 C1709.49176,75.8 1714.49407,79.2 1720.19671,82.2 C1725.89935,85.2 1732.40236,87.6 1739.30556,89.4 C1746.20876,91.2 1753.61218,92.4 1761.01561,92.7 L2052.1504,1095.3 L1318.11056,1095.3 Z"/>
      </g>
      <g transform="translate(456.913)">
        <polygon fill="#000" fill-rule="nonzero" points="435 59 465.014 116 780.16 116 810.174 59" opacity=".102"/>
        <polyline stroke="#FFF" stroke-width="7.89" points="468.015 117.3 468.015 .3 778.159 .3 778.159 117.3"/>
        <g transform="translate(435)">
          <polygon fill="#000" fill-rule="nonzero" points="0 59 30.014 116 345.16 116 375.174 59" opacity=".102"/>
          <g fill="#CECECE" fill-rule="nonzero" transform="translate(33.015 4)">
            <path d="M8.01680995,1.08814815 L15.2319389,5.18962963 L15.2319389,13.3925926 L8.01680995,17.4940741 L0.801680995,13.3925926 L0.801680995,5.18962963 L8.01680995,1.08814815 M8.01680995,0.0837037037 L0,4.68740741 L0,13.8948148 L8.01680995,18.4985185 L16.0336199,13.8948148 L16.0336199,4.68740741 L8.01680995,0.0837037037 L8.01680995,0.0837037037 Z"/>
            <path d="M23.2487488,1.08814815 L30.4638778,5.18962963 L30.4638778,13.3925926 L23.2487488,17.4940741 L16.0336199,13.3925926 L16.0336199,5.18962963 L23.2487488,1.08814815 M23.2487488,0.0837037037 L15.2319389,4.68740741 L15.2319389,13.8948148 L23.2487488,18.4985185 L31.2655588,13.8948148 L31.2655588,4.68740741 L23.2487488,0.0837037037 L23.2487488,0.0837037037 Z"/>
            <path d="M38.4806877,1.08814815 L45.6958167,5.18962963 L45.6958167,13.3925926 L38.4806877,17.4940741 L31.2655588,13.3925926 L31.2655588,5.18962963 L38.4806877,1.08814815 M38.4806877,0.0837037037 L30.4638778,4.68740741 L30.4638778,13.8948148 L38.4806877,18.4985185 L46.4974977,13.8948148 L46.4974977,4.68740741 L38.4806877,0.0837037037 L38.4806877,0.0837037037 Z"/>
            <path d="M53.7126267,1.08814815 L60.9277556,5.18962963 L60.9277556,13.3925926 L53.7126267,17.4940741 L46.4974977,13.3925926 L46.4974977,5.18962963 L53.7126267,1.08814815 M53.7126267,0.0837037037 L45.6958167,4.68740741 L45.6958167,13.8948148 L53.7126267,18.4985185 L61.7294366,13.8948148 L61.7294366,4.68740741 L53.7126267,0.0837037037 L53.7126267,0.0837037037 Z"/>
            <path d="M68.9445656,1.08814815 L76.1596945,5.18962963 L76.1596945,13.3925926 L68.9445656,17.4940741 L61.7294366,13.3925926 L61.7294366,5.18962963 L68.9445656,1.08814815 M68.9445656,0.0837037037 L60.9277556,4.68740741 L60.9277556,13.8948148 L68.9445656,18.4985185 L76.9613756,13.8948148 L76.9613756,4.68740741 L68.9445656,0.0837037037 L68.9445656,0.0837037037 Z"/>
            <path d="M84.1765045,1.08814815 L91.3916334,5.18962963 L91.3916334,13.3925926 L84.1765045,17.4940741 L76.9613756,13.3925926 L76.9613756,5.18962963 L84.1765045,1.08814815 M84.1765045,0.0837037037 L76.1596945,4.68740741 L76.1596945,13.8948148 L84.1765045,18.4985185 L92.1933144,13.8948148 L92.1933144,4.68740741 L84.1765045,0.0837037037 L84.1765045,0.0837037037 Z"/>
            <path d="M99.4084434,1.08814815 L106.623573,5.18962963 L106.623573,13.3925926 L99.4084434,17.4940741 L92.1933144,13.3925926 L92.1933144,5.18962963 L99.4084434,1.08814815 M99.4084434,0.0837037037 L91.3916334,4.68740741 L91.3916334,13.8948148 L99.4084434,18.4985185 L107.425253,13.8948148 L107.425253,4.68740741 L99.4084434,0.0837037037 L99.4084434,0.0837037037 Z"/>
            <path d="M114.640382,1.08814815 L121.855512,5.18962963 L121.855512,13.3925926 L114.640382,17.4940741 L107.425253,13.3925926 L107.425253,5.18962963 L114.640382,1.08814815 M114.640382,0.0837037037 L106.623573,4.68740741 L106.623573,13.8948148 L114.640382,18.4985185 L122.657193,13.8948148 L122.657193,4.68740741 L114.640382,0.0837037037 L114.640382,0.0837037037 Z"/>
            <path d="M129.872321,1.08814815 L137.08745,5.18962963 L137.08745,13.3925926 L129.872321,17.4940741 L122.657193,13.3925926 L122.657193,5.18962963 L129.872321,1.08814815 M129.872321,0.0837037037 L121.855512,4.68740741 L121.855512,13.8948148 L129.872321,18.4985185 L137.889132,13.8948148 L137.889132,4.68740741 L129.872321,0.0837037037 L129.872321,0.0837037037 Z"/>
            <path d="M145.10426,1.08814815 L152.319389,5.18962963 L152.319389,13.3925926 L145.10426,17.4940741 L137.889132,13.3925926 L137.889132,5.18962963 L145.10426,1.08814815 M145.10426,0.0837037037 L137.08745,4.68740741 L137.08745,13.8948148 L145.10426,18.4985185 L153.12107,13.8948148 L153.12107,4.68740741 L145.10426,0.0837037037 L145.10426,0.0837037037 Z"/>
            <path d="M160.336199,1.08814815 L167.551328,5.18962963 L167.551328,13.3925926 L160.336199,17.4940741 L153.12107,13.3925926 L153.12107,5.18962963 L160.336199,1.08814815 M160.336199,0.0837037037 L152.319389,4.68740741 L152.319389,13.8948148 L160.336199,18.4985185 L168.353009,13.8948148 L168.353009,4.68740741 L160.336199,0.0837037037 L160.336199,0.0837037037 Z"/>
            <path d="M175.568138,1.08814815 L182.783267,5.18962963 L182.783267,13.3925926 L175.568138,17.4940741 L168.353009,13.3925926 L168.353009,5.18962963 L175.568138,1.08814815 M175.568138,0.0837037037 L167.551328,4.68740741 L167.551328,13.8948148 L175.568138,18.4985185 L183.584948,13.8948148 L183.584948,4.68740741 L175.568138,0.0837037037 L175.568138,0.0837037037 Z"/>
            <path d="M190.800076,1.08814815 L198.015206,5.18962963 L198.015206,13.3925926 L190.800076,17.4940741 L183.584948,13.3925926 L183.584948,5.18962963 L190.800076,1.08814815 M190.800076,0.0837037037 L182.783267,4.68740741 L182.783267,13.8948148 L190.800076,18.4985185 L198.816887,13.8948148 L198.816887,4.68740741 L190.800076,0.0837037037 L190.800076,0.0837037037 Z"/>
            <path d="M206.032016,1.08814815 L213.247145,5.18962963 L213.247145,13.3925926 L206.032016,17.4940741 L198.816887,13.3925926 L198.816887,5.18962963 L206.032016,1.08814815 M206.032016,0.0837037037 L198.015206,4.68740741 L198.015206,13.8948148 L206.032016,18.4985185 L214.048826,13.8948148 L214.048826,4.68740741 L206.032016,0.0837037037 L206.032016,0.0837037037 Z"/>
            <path d="M221.263955,1.08814815 L228.479083,5.18962963 L228.479083,13.3925926 L221.263955,17.4940741 L214.048826,13.3925926 L214.048826,5.18962963 L221.263955,1.08814815 M221.263955,0.0837037037 L213.247145,4.68740741 L213.247145,13.8948148 L221.263955,18.4985185 L229.280765,13.8948148 L229.280765,4.68740741 L221.263955,0.0837037037 L221.263955,0.0837037037 Z"/>
            <path d="M236.495894,1.08814815 L243.711022,5.18962963 L243.711022,13.3925926 L236.495894,17.4940741 L229.280765,13.3925926 L229.280765,5.18962963 L236.495894,1.08814815 M236.495894,0.0837037037 L228.479083,4.68740741 L228.479083,13.8948148 L236.495894,18.4985185 L244.512703,13.8948148 L244.512703,4.68740741 L236.495894,0.0837037037 L236.495894,0.0837037037 Z"/>
            <path d="M251.727833,1.08814815 L258.942961,5.18962963 L258.942961,13.3925926 L251.727833,17.4940741 L244.512703,13.3925926 L244.512703,5.18962963 L251.727833,1.08814815 M251.727833,0.0837037037 L243.711022,4.68740741 L243.711022,13.8948148 L251.727833,18.4985185 L259.744642,13.8948148 L259.744642,4.68740741 L251.727833,0.0837037037 L251.727833,0.0837037037 Z"/>
            <path d="M266.959771,1.08814815 L274.1749,5.18962963 L274.1749,13.3925926 L266.959771,17.4940741 L259.744642,13.3925926 L259.744642,5.18962963 L266.959771,1.08814815 M266.959771,0.0837037037 L258.942961,4.68740741 L258.942961,13.8948148 L266.959771,18.4985185 L274.976581,13.8948148 L274.976581,4.68740741 L266.959771,0.0837037037 L266.959771,0.0837037037 Z"/>
            <path d="M282.19171,1.08814815 L289.40684,5.18962963 L289.40684,13.3925926 L282.19171,17.4940741 L274.976581,13.3925926 L274.976581,5.18962963 L282.19171,1.08814815 M282.19171,0.0837037037 L274.1749,4.68740741 L274.1749,13.8948148 L282.19171,18.4985185 L290.20852,13.8948148 L290.20852,4.68740741 L282.19171,0.0837037037 L282.19171,0.0837037037 Z"/>
            <path d="M297.423649,1.08814815 L304.638778,5.18962963 L304.638778,13.3925926 L297.423649,17.4940741 L290.20852,13.3925926 L290.20852,5.18962963 L297.423649,1.08814815 M297.423649,0.0837037037 L289.40684,4.68740741 L289.40684,13.8948148 L297.423649,18.4985185 L305.440459,13.8948148 L305.440459,4.68740741 L297.423649,0.0837037037 L297.423649,0.0837037037 Z"/>
            <g transform="translate(7.215 13.393)">
              <path d="M8.41765045,1.08814815 L15.6327794,5.18962963 L15.6327794,13.3925926 L8.41765045,17.4940741 L1.20252149,13.3925926 L1.20252149,5.18962963 L8.41765045,1.08814815 M8.41765045,0.167407407 L0.400840497,4.77111111 L0.400840497,13.9785185 L8.41765045,18.5822222 L16.4344604,13.9785185 L16.4344604,4.77111111 L8.41765045,0.167407407 L8.41765045,0.167407407 Z"/>
              <path d="M23.6495894,1.08814815 L30.8647183,5.18962963 L30.8647183,13.3925926 L23.6495894,17.4940741 L16.4344604,13.3925926 L16.4344604,5.18962963 L23.6495894,1.08814815 M23.6495894,0.167407407 L15.6327794,4.77111111 L15.6327794,13.9785185 L23.6495894,18.5822222 L31.6663993,13.9785185 L31.6663993,4.77111111 L23.6495894,0.167407407 L23.6495894,0.167407407 Z"/>
              <path d="M38.8815283,1.08814815 L46.0966572,5.18962963 L46.0966572,13.3925926 L38.8815283,17.4940741 L31.6663993,13.3925926 L31.6663993,5.18962963 L38.8815283,1.08814815 M38.8815283,0.167407407 L30.8647183,4.77111111 L30.8647183,13.9785185 L38.8815283,18.5822222 L46.8983382,13.9785185 L46.8983382,4.77111111 L38.8815283,0.167407407 L38.8815283,0.167407407 Z"/>
              <path d="M54.1134671,1.08814815 L61.3285962,5.18962963 L61.3285962,13.3925926 L54.1134671,17.4940741 L46.8983382,13.3925926 L46.8983382,5.18962963 L54.1134671,1.08814815 M54.1134671,0.167407407 L46.0966572,4.77111111 L46.0966572,13.9785185 L54.1134671,18.5822222 L62.1302771,13.9785185 L62.1302771,4.77111111 L54.1134671,0.167407407 L54.1134671,0.167407407 Z"/>
              <path d="M69.3454061,1.08814815 L76.560535,5.18962963 L76.560535,13.3925926 L69.3454061,17.4940741 L62.1302771,13.3925926 L62.1302771,5.18962963 L69.3454061,1.08814815 M69.3454061,0.167407407 L61.3285962,4.77111111 L61.3285962,13.9785185 L69.3454061,18.5822222 L77.362216,13.9785185 L77.362216,4.77111111 L69.3454061,0.167407407 L69.3454061,0.167407407 Z"/>
              <path d="M84.577345,1.08814815 L91.7924739,5.18962963 L91.7924739,13.3925926 L84.577345,17.4940741 L77.362216,13.3925926 L77.362216,5.18962963 L84.577345,1.08814815 M84.577345,0.167407407 L76.560535,4.77111111 L76.560535,13.9785185 L84.577345,18.5822222 L92.594155,13.9785185 L92.594155,4.77111111 L84.577345,0.167407407 L84.577345,0.167407407 Z"/>
              <path d="M99.8092839,1.08814815 L107.024412,5.18962963 L107.024412,13.3925926 L99.8092839,17.4940741 L92.594155,13.3925926 L92.594155,5.18962963 L99.8092839,1.08814815 M99.8092839,0.167407407 L91.7924739,4.77111111 L91.7924739,13.9785185 L99.8092839,18.5822222 L107.826093,13.9785185 L107.826093,4.77111111 L99.8092839,0.167407407 L99.8092839,0.167407407 Z"/>
              <path d="M115.041223,1.08814815 L122.256352,5.18962963 L122.256352,13.3925926 L115.041223,17.4940741 L107.826093,13.3925926 L107.826093,5.18962963 L115.041223,1.08814815 M115.041223,0.167407407 L107.024412,4.77111111 L107.024412,13.9785185 L115.041223,18.5822222 L123.058032,13.9785185 L123.058032,4.77111111 L115.041223,0.167407407 L115.041223,0.167407407 Z"/>
              <path d="M130.273162,1.08814815 L137.488291,5.18962963 L137.488291,13.3925926 L130.273162,17.4940741 L123.058032,13.3925926 L123.058032,5.18962963 L130.273162,1.08814815 M130.273162,0.167407407 L122.256352,4.77111111 L122.256352,13.9785185 L130.273162,18.5822222 L138.289972,13.9785185 L138.289972,4.77111111 L130.273162,0.167407407 L130.273162,0.167407407 Z"/>
              <path d="M145.5051,1.08814815 L152.72023,5.18962963 L152.72023,13.3925926 L145.5051,17.4940741 L138.289972,13.3925926 L138.289972,5.18962963 L145.5051,1.08814815 M145.5051,0.167407407 L137.488291,4.77111111 L137.488291,13.9785185 L145.5051,18.5822222 L153.521911,13.9785185 L153.521911,4.77111111 L145.5051,0.167407407 L145.5051,0.167407407 Z"/>
              <path d="M160.737039,1.08814815 L167.952169,5.18962963 L167.952169,13.3925926 L160.737039,17.4940741 L153.521911,13.3925926 L153.521911,5.18962963 L160.737039,1.08814815 M160.737039,0.167407407 L152.72023,4.77111111 L152.72023,13.9785185 L160.737039,18.5822222 L168.75385,13.9785185 L168.75385,4.77111111 L160.737039,0.167407407 L160.737039,0.167407407 Z"/>
              <path d="M175.968978,1.08814815 L183.184107,5.18962963 L183.184107,13.3925926 L175.968978,17.4940741 L168.75385,13.3925926 L168.75385,5.18962963 L175.968978,1.08814815 M175.968978,0.167407407 L167.952169,4.77111111 L167.952169,13.9785185 L175.968978,18.5822222 L183.985789,13.9785185 L183.985789,4.77111111 L175.968978,0.167407407 L175.968978,0.167407407 Z"/>
              <path d="M191.200917,1.08814815 L198.416046,5.18962963 L198.416046,13.3925926 L191.200917,17.4940741 L183.985789,13.3925926 L183.985789,5.18962963 L191.200917,1.08814815 M191.200917,0.167407407 L183.184107,4.77111111 L183.184107,13.9785185 L191.200917,18.5822222 L199.217727,13.9785185 L199.217727,4.77111111 L191.200917,0.167407407 L191.200917,0.167407407 Z"/>
              <path d="M206.432856,1.08814815 L213.647985,5.18962963 L213.647985,13.3925926 L206.432856,17.4940741 L199.217727,13.3925926 L199.217727,5.18962963 L206.432856,1.08814815 M206.432856,0.167407407 L198.416046,4.77111111 L198.416046,13.9785185 L206.432856,18.5822222 L214.449666,13.9785185 L214.449666,4.77111111 L206.432856,0.167407407 L206.432856,0.167407407 Z"/>
              <path d="M221.664796,1.08814815 L228.879924,5.18962963 L228.879924,13.3925926 L221.664796,17.4940741 L214.449666,13.3925926 L214.449666,5.18962963 L221.664796,1.08814815 M221.664796,0.167407407 L213.647985,4.77111111 L213.647985,13.9785185 L221.664796,18.5822222 L229.681605,13.9785185 L229.681605,4.77111111 L221.664796,0.167407407 L221.664796,0.167407407 Z"/>
              <path d="M236.896734,1.08814815 L244.111863,5.18962963 L244.111863,13.3925926 L236.896734,17.4940741 L229.681605,13.3925926 L229.681605,5.18962963 L236.896734,1.08814815 M236.896734,0.167407407 L228.879924,4.77111111 L228.879924,13.9785185 L236.896734,18.5822222 L244.913544,13.9785185 L244.913544,4.77111111 L236.896734,0.167407407 L236.896734,0.167407407 Z"/>
              <path d="M252.128673,1.08814815 L259.343802,5.18962963 L259.343802,13.3925926 L252.128673,17.4940741 L244.913544,13.3925926 L244.913544,5.18962963 L252.128673,1.08814815 M252.128673,0.167407407 L244.111863,4.77111111 L244.111863,13.9785185 L252.128673,18.5822222 L260.145483,13.9785185 L260.145483,4.77111111 L252.128673,0.167407407 L252.128673,0.167407407 Z"/>
              <path d="M267.360612,1.08814815 L274.57574,5.18962963 L274.57574,13.3925926 L267.360612,17.4940741 L260.145483,13.3925926 L260.145483,5.18962963 L267.360612,1.08814815 M267.360612,0.167407407 L259.343802,4.77111111 L259.343802,13.9785185 L267.360612,18.5822222 L275.377422,13.9785185 L275.377422,4.77111111 L267.360612,0.167407407 L267.360612,0.167407407 Z"/>
              <path d="M282.592551,1.08814815 L289.807679,5.18962963 L289.807679,13.3925926 L282.592551,17.4940741 L275.377422,13.3925926 L275.377422,5.18962963 L282.592551,1.08814815 M282.592551,0.167407407 L274.57574,4.77111111 L274.57574,13.9785185 L282.592551,18.5822222 L290.60936,13.9785185 L290.60936,4.77111111 L282.592551,0.167407407 L282.592551,0.167407407 Z"/>
              <path d="M297.82449,1.08814815 L305.039619,5.18962963 L305.039619,13.3925926 L297.82449,17.4940741 L290.60936,13.3925926 L290.60936,5.18962963 L297.82449,1.08814815 M297.82449,0.167407407 L289.807679,4.77111111 L289.807679,13.9785185 L297.82449,18.5822222 L305.841299,13.9785185 L305.841299,4.77111111 L297.82449,0.167407407 L297.82449,0.167407407 Z"/>
            </g>
            <g transform="translate(0 26.785)">
              <path d="M8.01680995,1.25555556 L15.2319389,5.35703704 L15.2319389,13.56 L8.01680995,17.6614815 L0.801680995,13.56 L0.801680995,5.35703704 L8.01680995,1.25555556 M8.01680995,0.334814815 L0,4.93851852 L0,14.1459259 L8.01680995,18.7496296 L16.0336199,14.1459259 L16.0336199,4.93851852 L8.01680995,0.334814815 L8.01680995,0.334814815 Z"/>
              <path d="M23.2487488,1.25555556 L30.4638778,5.35703704 L30.4638778,13.56 L23.2487488,17.6614815 L16.0336199,13.56 L16.0336199,5.35703704 L23.2487488,1.25555556 M23.2487488,0.334814815 L15.2319389,4.93851852 L15.2319389,14.1459259 L23.2487488,18.7496296 L31.2655588,14.1459259 L31.2655588,4.93851852 L23.2487488,0.334814815 L23.2487488,0.334814815 Z"/>
              <path d="M38.4806877,1.25555556 L45.6958167,5.35703704 L45.6958167,13.56 L38.4806877,17.6614815 L31.2655588,13.56 L31.2655588,5.35703704 L38.4806877,1.25555556 M38.4806877,0.334814815 L30.4638778,4.93851852 L30.4638778,14.1459259 L38.4806877,18.7496296 L46.4974977,14.1459259 L46.4974977,4.93851852 L38.4806877,0.334814815 L38.4806877,0.334814815 Z"/>
              <path d="M53.7126267,1.25555556 L60.9277556,5.35703704 L60.9277556,13.56 L53.7126267,17.6614815 L46.4974977,13.56 L46.4974977,5.35703704 L53.7126267,1.25555556 M53.7126267,0.334814815 L45.6958167,4.93851852 L45.6958167,14.1459259 L53.7126267,18.7496296 L61.7294366,14.1459259 L61.7294366,4.93851852 L53.7126267,0.334814815 L53.7126267,0.334814815 Z"/>
              <path d="M68.9445656,1.25555556 L76.1596945,5.35703704 L76.1596945,13.56 L68.9445656,17.6614815 L61.7294366,13.56 L61.7294366,5.35703704 L68.9445656,1.25555556 M68.9445656,0.334814815 L60.9277556,4.93851852 L60.9277556,14.1459259 L68.9445656,18.7496296 L76.9613756,14.1459259 L76.9613756,4.93851852 L68.9445656,0.334814815 L68.9445656,0.334814815 Z"/>
              <path d="M84.1765045,1.25555556 L91.3916334,5.35703704 L91.3916334,13.56 L84.1765045,17.6614815 L76.9613756,13.56 L76.9613756,5.35703704 L84.1765045,1.25555556 M84.1765045,0.334814815 L76.1596945,4.93851852 L76.1596945,14.1459259 L84.1765045,18.7496296 L92.1933144,14.1459259 L92.1933144,4.93851852 L84.1765045,0.334814815 L84.1765045,0.334814815 Z"/>
              <path d="M99.4084434,1.25555556 L106.623573,5.35703704 L106.623573,13.56 L99.4084434,17.6614815 L92.1933144,13.56 L92.1933144,5.35703704 L99.4084434,1.25555556 M99.4084434,0.334814815 L91.3916334,4.93851852 L91.3916334,14.1459259 L99.4084434,18.7496296 L107.425253,14.1459259 L107.425253,4.93851852 L99.4084434,0.334814815 L99.4084434,0.334814815 Z"/>
              <path d="M114.640382,1.25555556 L121.855512,5.35703704 L121.855512,13.56 L114.640382,17.6614815 L107.425253,13.56 L107.425253,5.35703704 L114.640382,1.25555556 M114.640382,0.334814815 L106.623573,4.93851852 L106.623573,14.1459259 L114.640382,18.7496296 L122.657193,14.1459259 L122.657193,4.93851852 L114.640382,0.334814815 L114.640382,0.334814815 Z"/>
              <path d="M129.872321,1.25555556 L137.08745,5.35703704 L137.08745,13.56 L129.872321,17.6614815 L122.657193,13.56 L122.657193,5.35703704 L129.872321,1.25555556 M129.872321,0.334814815 L121.855512,4.93851852 L121.855512,14.1459259 L129.872321,18.7496296 L137.889132,14.1459259 L137.889132,4.93851852 L129.872321,0.334814815 L129.872321,0.334814815 Z"/>
              <path d="M145.10426,1.25555556 L152.319389,5.35703704 L152.319389,13.56 L145.10426,17.6614815 L137.889132,13.56 L137.889132,5.35703704 L145.10426,1.25555556 M145.10426,0.334814815 L137.08745,4.93851852 L137.08745,14.1459259 L145.10426,18.7496296 L153.12107,14.1459259 L153.12107,4.93851852 L145.10426,0.334814815 L145.10426,0.334814815 Z"/>
              <path d="M160.336199,1.25555556 L167.551328,5.35703704 L167.551328,13.56 L160.336199,17.6614815 L153.12107,13.56 L153.12107,5.35703704 L160.336199,1.25555556 M160.336199,0.334814815 L152.319389,4.93851852 L152.319389,14.1459259 L160.336199,18.7496296 L168.353009,14.1459259 L168.353009,4.93851852 L160.336199,0.334814815 L160.336199,0.334814815 Z"/>
              <path d="M175.568138,1.25555556 L182.783267,5.35703704 L182.783267,13.56 L175.568138,17.6614815 L168.353009,13.56 L168.353009,5.35703704 L175.568138,1.25555556 M175.568138,0.334814815 L167.551328,4.93851852 L167.551328,14.1459259 L175.568138,18.7496296 L183.584948,14.1459259 L183.584948,4.93851852 L175.568138,0.334814815 L175.568138,0.334814815 Z"/>
              <path d="M190.800076,1.25555556 L198.015206,5.35703704 L198.015206,13.56 L190.800076,17.6614815 L183.584948,13.56 L183.584948,5.35703704 L190.800076,1.25555556 M190.800076,0.334814815 L182.783267,4.93851852 L182.783267,14.1459259 L190.800076,18.7496296 L198.816887,14.1459259 L198.816887,4.93851852 L190.800076,0.334814815 L190.800076,0.334814815 Z"/>
              <path d="M206.032016,1.25555556 L213.247145,5.35703704 L213.247145,13.56 L206.032016,17.6614815 L198.816887,13.56 L198.816887,5.35703704 L206.032016,1.25555556 M206.032016,0.334814815 L198.015206,4.93851852 L198.015206,14.1459259 L206.032016,18.7496296 L214.048826,14.1459259 L214.048826,4.93851852 L206.032016,0.334814815 L206.032016,0.334814815 Z"/>
              <path d="M221.263955,1.25555556 L228.479083,5.35703704 L228.479083,13.56 L221.263955,17.6614815 L214.048826,13.56 L214.048826,5.35703704 L221.263955,1.25555556 M221.263955,0.334814815 L213.247145,4.93851852 L213.247145,14.1459259 L221.263955,18.7496296 L229.280765,14.1459259 L229.280765,4.93851852 L221.263955,0.334814815 L221.263955,0.334814815 Z"/>
              <path d="M236.495894,1.25555556 L243.711022,5.35703704 L243.711022,13.56 L236.495894,17.6614815 L229.280765,13.56 L229.280765,5.35703704 L236.495894,1.25555556 M236.495894,0.334814815 L228.479083,4.93851852 L228.479083,14.1459259 L236.495894,18.7496296 L244.512703,14.1459259 L244.512703,4.93851852 L236.495894,0.334814815 L236.495894,0.334814815 Z"/>
              <path d="M251.727833,1.25555556 L258.942961,5.35703704 L258.942961,13.56 L251.727833,17.6614815 L244.512703,13.56 L244.512703,5.35703704 L251.727833,1.25555556 M251.727833,0.334814815 L243.711022,4.93851852 L243.711022,14.1459259 L251.727833,18.7496296 L259.744642,14.1459259 L259.744642,4.93851852 L251.727833,0.334814815 L251.727833,0.334814815 Z"/>
              <path d="M266.959771,1.25555556 L274.1749,5.35703704 L274.1749,13.56 L266.959771,17.6614815 L259.744642,13.56 L259.744642,5.35703704 L266.959771,1.25555556 M266.959771,0.334814815 L258.942961,4.93851852 L258.942961,14.1459259 L266.959771,18.7496296 L274.976581,14.1459259 L274.976581,4.93851852 L266.959771,0.334814815 L266.959771,0.334814815 Z"/>
              <path d="M282.19171,1.25555556 L289.40684,5.35703704 L289.40684,13.56 L282.19171,17.6614815 L274.976581,13.56 L274.976581,5.35703704 L282.19171,1.25555556 M282.19171,0.334814815 L274.1749,4.93851852 L274.1749,14.1459259 L282.19171,18.7496296 L290.20852,14.1459259 L290.20852,4.93851852 L282.19171,0.334814815 L282.19171,0.334814815 Z"/>
              <path d="M297.423649,1.25555556 L304.638778,5.35703704 L304.638778,13.56 L297.423649,17.6614815 L290.20852,13.56 L290.20852,5.35703704 L297.423649,1.25555556 M297.423649,0.334814815 L289.40684,4.93851852 L289.40684,14.1459259 L297.423649,18.7496296 L305.440459,14.1459259 L305.440459,4.93851852 L297.423649,0.334814815 L297.423649,0.334814815 Z"/>
            </g>
            <g transform="translate(7.215 40.178)">
              <path d="M8.41765045,1.33925926 L15.6327794,5.44074074 L15.6327794,13.6437037 L8.41765045,17.7451852 L1.20252149,13.6437037 L1.20252149,5.44074074 L8.41765045,1.33925926 M8.41765045,0.334814815 L0.400840497,4.93851852 L0.400840497,14.1459259 L8.41765045,18.7496296 L16.4344604,14.1459259 L16.4344604,4.93851852 L8.41765045,0.334814815 L8.41765045,0.334814815 Z"/>
              <path d="M23.6495894,1.33925926 L30.8647183,5.44074074 L30.8647183,13.6437037 L23.6495894,17.7451852 L16.4344604,13.6437037 L16.4344604,5.44074074 L23.6495894,1.33925926 M23.6495894,0.334814815 L15.6327794,4.93851852 L15.6327794,14.1459259 L23.6495894,18.7496296 L31.6663993,14.1459259 L31.6663993,4.93851852 L23.6495894,0.334814815 L23.6495894,0.334814815 Z"/>
              <path d="M38.8815283,1.33925926 L46.0966572,5.44074074 L46.0966572,13.6437037 L38.8815283,17.7451852 L31.6663993,13.6437037 L31.6663993,5.44074074 L38.8815283,1.33925926 M38.8815283,0.334814815 L30.8647183,4.93851852 L30.8647183,14.1459259 L38.8815283,18.7496296 L46.8983382,14.1459259 L46.8983382,4.93851852 L38.8815283,0.334814815 L38.8815283,0.334814815 Z"/>
              <path d="M54.1134671,1.33925926 L61.3285962,5.44074074 L61.3285962,13.6437037 L54.1134671,17.7451852 L46.8983382,13.6437037 L46.8983382,5.44074074 L54.1134671,1.33925926 M54.1134671,0.334814815 L46.0966572,4.93851852 L46.0966572,14.1459259 L54.1134671,18.7496296 L62.1302771,14.1459259 L62.1302771,4.93851852 L54.1134671,0.334814815 L54.1134671,0.334814815 Z"/>
              <path d="M69.3454061,1.33925926 L76.560535,5.44074074 L76.560535,13.6437037 L69.3454061,17.7451852 L62.1302771,13.6437037 L62.1302771,5.44074074 L69.3454061,1.33925926 M69.3454061,0.334814815 L61.3285962,4.93851852 L61.3285962,14.1459259 L69.3454061,18.7496296 L77.362216,14.1459259 L77.362216,4.93851852 L69.3454061,0.334814815 L69.3454061,0.334814815 Z"/>
              <path d="M84.577345,1.33925926 L91.7924739,5.44074074 L91.7924739,13.6437037 L84.577345,17.7451852 L77.362216,13.6437037 L77.362216,5.44074074 L84.577345,1.33925926 M84.577345,0.334814815 L76.560535,4.93851852 L76.560535,14.1459259 L84.577345,18.7496296 L92.594155,14.1459259 L92.594155,4.93851852 L84.577345,0.334814815 L84.577345,0.334814815 Z"/>
              <path d="M99.8092839,1.33925926 L107.024412,5.44074074 L107.024412,13.6437037 L99.8092839,17.7451852 L92.594155,13.6437037 L92.594155,5.44074074 L99.8092839,1.33925926 M99.8092839,0.334814815 L91.7924739,4.93851852 L91.7924739,14.1459259 L99.8092839,18.7496296 L107.826093,14.1459259 L107.826093,4.93851852 L99.8092839,0.334814815 L99.8092839,0.334814815 Z"/>
              <path d="M115.041223,1.33925926 L122.256352,5.44074074 L122.256352,13.6437037 L115.041223,17.7451852 L107.826093,13.6437037 L107.826093,5.44074074 L115.041223,1.33925926 M115.041223,0.334814815 L107.024412,4.93851852 L107.024412,14.1459259 L115.041223,18.7496296 L123.058032,14.1459259 L123.058032,4.93851852 L115.041223,0.334814815 L115.041223,0.334814815 Z"/>
              <path d="M130.273162,1.33925926 L137.488291,5.44074074 L137.488291,13.6437037 L130.273162,17.7451852 L123.058032,13.6437037 L123.058032,5.44074074 L130.273162,1.33925926 M130.273162,0.334814815 L122.256352,4.93851852 L122.256352,14.1459259 L130.273162,18.7496296 L138.289972,14.1459259 L138.289972,4.93851852 L130.273162,0.334814815 L130.273162,0.334814815 Z"/>
              <path d="M145.5051,1.33925926 L152.72023,5.44074074 L152.72023,13.6437037 L145.5051,17.7451852 L138.289972,13.6437037 L138.289972,5.44074074 L145.5051,1.33925926 M145.5051,0.334814815 L137.488291,4.93851852 L137.488291,14.1459259 L145.5051,18.7496296 L153.521911,14.1459259 L153.521911,4.93851852 L145.5051,0.334814815 L145.5051,0.334814815 Z"/>
              <path d="M160.737039,1.33925926 L167.952169,5.44074074 L167.952169,13.6437037 L160.737039,17.7451852 L153.521911,13.6437037 L153.521911,5.44074074 L160.737039,1.33925926 M160.737039,0.334814815 L152.72023,4.93851852 L152.72023,14.1459259 L160.737039,18.7496296 L168.75385,14.1459259 L168.75385,4.93851852 L160.737039,0.334814815 L160.737039,0.334814815 Z"/>
              <path d="M175.968978,1.33925926 L183.184107,5.44074074 L183.184107,13.6437037 L175.968978,17.7451852 L168.75385,13.6437037 L168.75385,5.44074074 L175.968978,1.33925926 M175.968978,0.334814815 L167.952169,4.93851852 L167.952169,14.1459259 L175.968978,18.7496296 L183.985789,14.1459259 L183.985789,4.93851852 L175.968978,0.334814815 L175.968978,0.334814815 Z"/>
              <path d="M191.200917,1.33925926 L198.416046,5.44074074 L198.416046,13.6437037 L191.200917,17.7451852 L183.985789,13.6437037 L183.985789,5.44074074 L191.200917,1.33925926 M191.200917,0.334814815 L183.184107,4.93851852 L183.184107,14.1459259 L191.200917,18.7496296 L199.217727,14.1459259 L199.217727,4.93851852 L191.200917,0.334814815 L191.200917,0.334814815 Z"/>
              <path d="M206.432856,1.33925926 L213.647985,5.44074074 L213.647985,13.6437037 L206.432856,17.7451852 L199.217727,13.6437037 L199.217727,5.44074074 L206.432856,1.33925926 M206.432856,0.334814815 L198.416046,4.93851852 L198.416046,14.1459259 L206.432856,18.7496296 L214.449666,14.1459259 L214.449666,4.93851852 L206.432856,0.334814815 L206.432856,0.334814815 Z"/>
              <path d="M221.664796,1.33925926 L228.879924,5.44074074 L228.879924,13.6437037 L221.664796,17.7451852 L214.449666,13.6437037 L214.449666,5.44074074 L221.664796,1.33925926 M221.664796,0.334814815 L213.647985,4.93851852 L213.647985,14.1459259 L221.664796,18.7496296 L229.681605,14.1459259 L229.681605,4.93851852 L221.664796,0.334814815 L221.664796,0.334814815 Z"/>
              <path d="M236.896734,1.33925926 L244.111863,5.44074074 L244.111863,13.6437037 L236.896734,17.7451852 L229.681605,13.6437037 L229.681605,5.44074074 L236.896734,1.33925926 M236.896734,0.334814815 L228.879924,4.93851852 L228.879924,14.1459259 L236.896734,18.7496296 L244.913544,14.1459259 L244.913544,4.93851852 L236.896734,0.334814815 L236.896734,0.334814815 Z"/>
              <path d="M252.128673,1.33925926 L259.343802,5.44074074 L259.343802,13.6437037 L252.128673,17.7451852 L244.913544,13.6437037 L244.913544,5.44074074 L252.128673,1.33925926 M252.128673,0.334814815 L244.111863,4.93851852 L244.111863,14.1459259 L252.128673,18.7496296 L260.145483,14.1459259 L260.145483,4.93851852 L252.128673,0.334814815 L252.128673,0.334814815 Z"/>
              <path d="M267.360612,1.33925926 L274.57574,5.44074074 L274.57574,13.6437037 L267.360612,17.7451852 L260.145483,13.6437037 L260.145483,5.44074074 L267.360612,1.33925926 M267.360612,0.334814815 L259.343802,4.93851852 L259.343802,14.1459259 L267.360612,18.7496296 L275.377422,14.1459259 L275.377422,4.93851852 L267.360612,0.334814815 L267.360612,0.334814815 Z"/>
              <path d="M282.592551,1.33925926 L289.807679,5.44074074 L289.807679,13.6437037 L282.592551,17.7451852 L275.377422,13.6437037 L275.377422,5.44074074 L282.592551,1.33925926 M282.592551,0.334814815 L274.57574,4.93851852 L274.57574,14.1459259 L282.592551,18.7496296 L290.60936,14.1459259 L290.60936,4.93851852 L282.592551,0.334814815 L282.592551,0.334814815 Z"/>
              <path d="M297.82449,1.33925926 L305.039619,5.44074074 L305.039619,13.6437037 L297.82449,17.7451852 L290.60936,13.6437037 L290.60936,5.44074074 L297.82449,1.33925926 M297.82449,0.334814815 L289.807679,4.93851852 L289.807679,14.1459259 L297.82449,18.7496296 L305.841299,14.1459259 L305.841299,4.93851852 L297.82449,0.334814815 L297.82449,0.334814815 Z"/>
            </g>
            <g transform="translate(0 53.57)">
              <path d="M8.01680995,1.50666667 L15.2319389,5.60814815 L15.2319389,13.8111111 L8.01680995,17.9125926 L0.801680995,13.8111111 L0.801680995,5.60814815 L8.01680995,1.50666667 M8.01680995,0.502222222 L0,5.10592593 L0,14.3133333 L8.01680995,18.917037 L16.0336199,14.3133333 L16.0336199,5.10592593 L8.01680995,0.502222222 L8.01680995,0.502222222 Z"/>
              <path d="M23.2487488,1.50666667 L30.4638778,5.60814815 L30.4638778,13.8111111 L23.2487488,17.9125926 L16.0336199,13.8111111 L16.0336199,5.60814815 L23.2487488,1.50666667 M23.2487488,0.502222222 L15.2319389,5.10592593 L15.2319389,14.3133333 L23.2487488,18.917037 L31.2655588,14.3133333 L31.2655588,5.10592593 L23.2487488,0.502222222 L23.2487488,0.502222222 Z"/>
              <path d="M38.4806877,1.50666667 L45.6958167,5.60814815 L45.6958167,13.8111111 L38.4806877,17.9125926 L31.2655588,13.8111111 L31.2655588,5.60814815 L38.4806877,1.50666667 M38.4806877,0.502222222 L30.4638778,5.10592593 L30.4638778,14.3133333 L38.4806877,18.917037 L46.4974977,14.3133333 L46.4974977,5.10592593 L38.4806877,0.502222222 L38.4806877,0.502222222 Z"/>
              <path d="M53.7126267,1.50666667 L60.9277556,5.60814815 L60.9277556,13.8111111 L53.7126267,17.9125926 L46.4974977,13.8111111 L46.4974977,5.60814815 L53.7126267,1.50666667 M53.7126267,0.502222222 L45.6958167,5.10592593 L45.6958167,14.3133333 L53.7126267,18.917037 L61.7294366,14.3133333 L61.7294366,5.10592593 L53.7126267,0.502222222 L53.7126267,0.502222222 Z"/>
              <path d="M68.9445656,1.50666667 L76.1596945,5.60814815 L76.1596945,13.8111111 L68.9445656,17.9125926 L61.7294366,13.8111111 L61.7294366,5.60814815 L68.9445656,1.50666667 M68.9445656,0.502222222 L60.9277556,5.10592593 L60.9277556,14.3133333 L68.9445656,18.917037 L76.9613756,14.3133333 L76.9613756,5.10592593 L68.9445656,0.502222222 L68.9445656,0.502222222 Z"/>
              <path d="M84.1765045,1.50666667 L91.3916334,5.60814815 L91.3916334,13.8111111 L84.1765045,17.9125926 L76.9613756,13.8111111 L76.9613756,5.60814815 L84.1765045,1.50666667 M84.1765045,0.502222222 L76.1596945,5.10592593 L76.1596945,14.3133333 L84.1765045,18.917037 L92.1933144,14.3133333 L92.1933144,5.10592593 L84.1765045,0.502222222 L84.1765045,0.502222222 Z"/>
              <path d="M99.4084434,1.50666667 L106.623573,5.60814815 L106.623573,13.8111111 L99.4084434,17.9125926 L92.1933144,13.8111111 L92.1933144,5.60814815 L99.4084434,1.50666667 M99.4084434,0.502222222 L91.3916334,5.10592593 L91.3916334,14.3133333 L99.4084434,18.917037 L107.425253,14.3133333 L107.425253,5.10592593 L99.4084434,0.502222222 L99.4084434,0.502222222 Z"/>
              <path d="M114.640382,1.50666667 L121.855512,5.60814815 L121.855512,13.8111111 L114.640382,17.9125926 L107.425253,13.8111111 L107.425253,5.60814815 L114.640382,1.50666667 M114.640382,0.502222222 L106.623573,5.10592593 L106.623573,14.3133333 L114.640382,18.917037 L122.657193,14.3133333 L122.657193,5.10592593 L114.640382,0.502222222 L114.640382,0.502222222 Z"/>
              <path d="M129.872321,1.50666667 L137.08745,5.60814815 L137.08745,13.8111111 L129.872321,17.9125926 L122.657193,13.8111111 L122.657193,5.60814815 L129.872321,1.50666667 M129.872321,0.502222222 L121.855512,5.10592593 L121.855512,14.3133333 L129.872321,18.917037 L137.889132,14.3133333 L137.889132,5.10592593 L129.872321,0.502222222 L129.872321,0.502222222 Z"/>
              <path d="M145.10426,1.50666667 L152.319389,5.60814815 L152.319389,13.8111111 L145.10426,17.9125926 L137.889132,13.8111111 L137.889132,5.60814815 L145.10426,1.50666667 M145.10426,0.502222222 L137.08745,5.10592593 L137.08745,14.3133333 L145.10426,18.917037 L153.12107,14.3133333 L153.12107,5.10592593 L145.10426,0.502222222 L145.10426,0.502222222 Z"/>
              <path d="M160.336199,1.50666667 L167.551328,5.60814815 L167.551328,13.8111111 L160.336199,17.9125926 L153.12107,13.8111111 L153.12107,5.60814815 L160.336199,1.50666667 M160.336199,0.502222222 L152.319389,5.10592593 L152.319389,14.3133333 L160.336199,18.917037 L168.353009,14.3133333 L168.353009,5.10592593 L160.336199,0.502222222 L160.336199,0.502222222 Z"/>
              <path d="M175.568138,1.50666667 L182.783267,5.60814815 L182.783267,13.8111111 L175.568138,17.9125926 L168.353009,13.8111111 L168.353009,5.60814815 L175.568138,1.50666667 M175.568138,0.502222222 L167.551328,5.10592593 L167.551328,14.3133333 L175.568138,18.917037 L183.584948,14.3133333 L183.584948,5.10592593 L175.568138,0.502222222 L175.568138,0.502222222 Z"/>
              <path d="M190.800076,1.50666667 L198.015206,5.60814815 L198.015206,13.8111111 L190.800076,17.9125926 L183.584948,13.8111111 L183.584948,5.60814815 L190.800076,1.50666667 M190.800076,0.502222222 L182.783267,5.10592593 L182.783267,14.3133333 L190.800076,18.917037 L198.816887,14.3133333 L198.816887,5.10592593 L190.800076,0.502222222 L190.800076,0.502222222 Z"/>
              <path d="M206.032016,1.50666667 L213.247145,5.60814815 L213.247145,13.8111111 L206.032016,17.9125926 L198.816887,13.8111111 L198.816887,5.60814815 L206.032016,1.50666667 M206.032016,0.502222222 L198.015206,5.10592593 L198.015206,14.3133333 L206.032016,18.917037 L214.048826,14.3133333 L214.048826,5.10592593 L206.032016,0.502222222 L206.032016,0.502222222 Z"/>
              <path d="M221.263955,1.50666667 L228.479083,5.60814815 L228.479083,13.8111111 L221.263955,17.9125926 L214.048826,13.8111111 L214.048826,5.60814815 L221.263955,1.50666667 M221.263955,0.502222222 L213.247145,5.10592593 L213.247145,14.3133333 L221.263955,18.917037 L229.280765,14.3133333 L229.280765,5.10592593 L221.263955,0.502222222 L221.263955,0.502222222 Z"/>
              <path d="M236.495894,1.50666667 L243.711022,5.60814815 L243.711022,13.8111111 L236.495894,17.9125926 L229.280765,13.8111111 L229.280765,5.60814815 L236.495894,1.50666667 M236.495894,0.502222222 L228.479083,5.10592593 L228.479083,14.3133333 L236.495894,18.917037 L244.512703,14.3133333 L244.512703,5.10592593 L236.495894,0.502222222 L236.495894,0.502222222 Z"/>
              <path d="M251.727833,1.50666667 L258.942961,5.60814815 L258.942961,13.8111111 L251.727833,17.9125926 L244.512703,13.8111111 L244.512703,5.60814815 L251.727833,1.50666667 M251.727833,0.502222222 L243.711022,5.10592593 L243.711022,14.3133333 L251.727833,18.917037 L259.744642,14.3133333 L259.744642,5.10592593 L251.727833,0.502222222 L251.727833,0.502222222 Z"/>
              <path d="M266.959771,1.50666667 L274.1749,5.60814815 L274.1749,13.8111111 L266.959771,17.9125926 L259.744642,13.8111111 L259.744642,5.60814815 L266.959771,1.50666667 M266.959771,0.502222222 L258.942961,5.10592593 L258.942961,14.3133333 L266.959771,18.917037 L274.976581,14.3133333 L274.976581,5.10592593 L266.959771,0.502222222 L266.959771,0.502222222 Z"/>
              <path d="M282.19171,1.50666667 L289.40684,5.60814815 L289.40684,13.8111111 L282.19171,17.9125926 L274.976581,13.8111111 L274.976581,5.60814815 L282.19171,1.50666667 M282.19171,0.502222222 L274.1749,5.10592593 L274.1749,14.3133333 L282.19171,18.917037 L290.20852,14.3133333 L290.20852,5.10592593 L282.19171,0.502222222 L282.19171,0.502222222 Z"/>
              <path d="M297.423649,1.50666667 L304.638778,5.60814815 L304.638778,13.8111111 L297.423649,17.9125926 L290.20852,13.8111111 L290.20852,5.60814815 L297.423649,1.50666667 M297.423649,0.502222222 L289.40684,5.10592593 L289.40684,14.3133333 L297.423649,18.917037 L305.440459,14.3133333 L305.440459,5.10592593 L297.423649,0.502222222 L297.423649,0.502222222 Z"/>
            </g>
            <g transform="translate(7.215 66.963)">
              <path d="M8.41765045,1.50666667 L15.6327794,5.60814815 L15.6327794,13.8111111 L8.41765045,17.9125926 L1.20252149,13.8111111 L1.20252149,5.60814815 L8.41765045,1.50666667 M8.41765045,0.585925926 L0.400840497,5.18962963 L0.400840497,14.397037 L8.41765045,19.0007407 L16.4344604,14.397037 L16.4344604,5.18962963 L8.41765045,0.585925926 L8.41765045,0.585925926 Z"/>
              <path d="M23.6495894,1.50666667 L30.8647183,5.60814815 L30.8647183,13.8111111 L23.6495894,17.9125926 L16.4344604,13.8111111 L16.4344604,5.60814815 L23.6495894,1.50666667 M23.6495894,0.585925926 L15.6327794,5.18962963 L15.6327794,14.397037 L23.6495894,19.0007407 L31.6663993,14.397037 L31.6663993,5.18962963 L23.6495894,0.585925926 L23.6495894,0.585925926 Z"/>
              <path d="M38.8815283,1.50666667 L46.0966572,5.60814815 L46.0966572,13.8111111 L38.8815283,17.9125926 L31.6663993,13.8111111 L31.6663993,5.60814815 L38.8815283,1.50666667 M38.8815283,0.585925926 L30.8647183,5.18962963 L30.8647183,14.397037 L38.8815283,19.0007407 L46.8983382,14.397037 L46.8983382,5.18962963 L38.8815283,0.585925926 L38.8815283,0.585925926 Z"/>
              <path d="M54.1134671,1.50666667 L61.3285962,5.60814815 L61.3285962,13.8111111 L54.1134671,17.9125926 L46.8983382,13.8111111 L46.8983382,5.60814815 L54.1134671,1.50666667 M54.1134671,0.585925926 L46.0966572,5.18962963 L46.0966572,14.397037 L54.1134671,19.0007407 L62.1302771,14.397037 L62.1302771,5.18962963 L54.1134671,0.585925926 L54.1134671,0.585925926 Z"/>
              <path d="M69.3454061,1.50666667 L76.560535,5.60814815 L76.560535,13.8111111 L69.3454061,17.9125926 L62.1302771,13.8111111 L62.1302771,5.60814815 L69.3454061,1.50666667 M69.3454061,0.585925926 L61.3285962,5.18962963 L61.3285962,14.397037 L69.3454061,19.0007407 L77.362216,14.397037 L77.362216,5.18962963 L69.3454061,0.585925926 L69.3454061,0.585925926 Z"/>
              <path d="M84.577345,1.50666667 L91.7924739,5.60814815 L91.7924739,13.8111111 L84.577345,17.9125926 L77.362216,13.8111111 L77.362216,5.60814815 L84.577345,1.50666667 M84.577345,0.585925926 L76.560535,5.18962963 L76.560535,14.397037 L84.577345,19.0007407 L92.594155,14.397037 L92.594155,5.18962963 L84.577345,0.585925926 L84.577345,0.585925926 Z"/>
              <path d="M99.8092839,1.50666667 L107.024412,5.60814815 L107.024412,13.8111111 L99.8092839,17.9125926 L92.594155,13.8111111 L92.594155,5.60814815 L99.8092839,1.50666667 M99.8092839,0.585925926 L91.7924739,5.18962963 L91.7924739,14.397037 L99.8092839,19.0007407 L107.826093,14.397037 L107.826093,5.18962963 L99.8092839,0.585925926 L99.8092839,0.585925926 Z"/>
              <path d="M115.041223,1.50666667 L122.256352,5.60814815 L122.256352,13.8111111 L115.041223,17.9125926 L107.826093,13.8111111 L107.826093,5.60814815 L115.041223,1.50666667 M115.041223,0.585925926 L107.024412,5.18962963 L107.024412,14.397037 L115.041223,19.0007407 L123.058032,14.397037 L123.058032,5.18962963 L115.041223,0.585925926 L115.041223,0.585925926 Z"/>
              <path d="M130.273162,1.50666667 L137.488291,5.60814815 L137.488291,13.8111111 L130.273162,17.9125926 L123.058032,13.8111111 L123.058032,5.60814815 L130.273162,1.50666667 M130.273162,0.585925926 L122.256352,5.18962963 L122.256352,14.397037 L130.273162,19.0007407 L138.289972,14.397037 L138.289972,5.18962963 L130.273162,0.585925926 L130.273162,0.585925926 Z"/>
              <path d="M145.5051,1.50666667 L152.72023,5.60814815 L152.72023,13.8111111 L145.5051,17.9125926 L138.289972,13.8111111 L138.289972,5.60814815 L145.5051,1.50666667 M145.5051,0.585925926 L137.488291,5.18962963 L137.488291,14.397037 L145.5051,19.0007407 L153.521911,14.397037 L153.521911,5.18962963 L145.5051,0.585925926 L145.5051,0.585925926 Z"/>
              <path d="M160.737039,1.50666667 L167.952169,5.60814815 L167.952169,13.8111111 L160.737039,17.9125926 L153.521911,13.8111111 L153.521911,5.60814815 L160.737039,1.50666667 M160.737039,0.585925926 L152.72023,5.18962963 L152.72023,14.397037 L160.737039,19.0007407 L168.75385,14.397037 L168.75385,5.18962963 L160.737039,0.585925926 L160.737039,0.585925926 Z"/>
              <path d="M175.968978,1.50666667 L183.184107,5.60814815 L183.184107,13.8111111 L175.968978,17.9125926 L168.75385,13.8111111 L168.75385,5.60814815 L175.968978,1.50666667 M175.968978,0.585925926 L167.952169,5.18962963 L167.952169,14.397037 L175.968978,19.0007407 L183.985789,14.397037 L183.985789,5.18962963 L175.968978,0.585925926 L175.968978,0.585925926 Z"/>
              <path d="M191.200917,1.50666667 L198.416046,5.60814815 L198.416046,13.8111111 L191.200917,17.9125926 L183.985789,13.8111111 L183.985789,5.60814815 L191.200917,1.50666667 M191.200917,0.585925926 L183.184107,5.18962963 L183.184107,14.397037 L191.200917,19.0007407 L199.217727,14.397037 L199.217727,5.18962963 L191.200917,0.585925926 L191.200917,0.585925926 Z"/>
              <path d="M206.432856,1.50666667 L213.647985,5.60814815 L213.647985,13.8111111 L206.432856,17.9125926 L199.217727,13.8111111 L199.217727,5.60814815 L206.432856,1.50666667 M206.432856,0.585925926 L198.416046,5.18962963 L198.416046,14.397037 L206.432856,19.0007407 L214.449666,14.397037 L214.449666,5.18962963 L206.432856,0.585925926 L206.432856,0.585925926 Z"/>
              <path d="M221.664796,1.50666667 L228.879924,5.60814815 L228.879924,13.8111111 L221.664796,17.9125926 L214.449666,13.8111111 L214.449666,5.60814815 L221.664796,1.50666667 M221.664796,0.585925926 L213.647985,5.18962963 L213.647985,14.397037 L221.664796,19.0007407 L229.681605,14.397037 L229.681605,5.18962963 L221.664796,0.585925926 L221.664796,0.585925926 Z"/>
              <path d="M236.896734,1.50666667 L244.111863,5.60814815 L244.111863,13.8111111 L236.896734,17.9125926 L229.681605,13.8111111 L229.681605,5.60814815 L236.896734,1.50666667 M236.896734,0.585925926 L228.879924,5.18962963 L228.879924,14.397037 L236.896734,19.0007407 L244.913544,14.397037 L244.913544,5.18962963 L236.896734,0.585925926 L236.896734,0.585925926 Z"/>
              <path d="M252.128673,1.50666667 L259.343802,5.60814815 L259.343802,13.8111111 L252.128673,17.9125926 L244.913544,13.8111111 L244.913544,5.60814815 L252.128673,1.50666667 M252.128673,0.585925926 L244.111863,5.18962963 L244.111863,14.397037 L252.128673,19.0007407 L260.145483,14.397037 L260.145483,5.18962963 L252.128673,0.585925926 L252.128673,0.585925926 Z"/>
              <path d="M267.360612,1.50666667 L274.57574,5.60814815 L274.57574,13.8111111 L267.360612,17.9125926 L260.145483,13.8111111 L260.145483,5.60814815 L267.360612,1.50666667 M267.360612,0.585925926 L259.343802,5.18962963 L259.343802,14.397037 L267.360612,19.0007407 L275.377422,14.397037 L275.377422,5.18962963 L267.360612,0.585925926 L267.360612,0.585925926 Z"/>
              <path d="M282.592551,1.50666667 L289.807679,5.60814815 L289.807679,13.8111111 L282.592551,17.9125926 L275.377422,13.8111111 L275.377422,5.60814815 L282.592551,1.50666667 M282.592551,0.585925926 L274.57574,5.18962963 L274.57574,14.397037 L282.592551,19.0007407 L290.60936,14.397037 L290.60936,5.18962963 L282.592551,0.585925926 L282.592551,0.585925926 Z"/>
              <path d="M297.82449,1.50666667 L305.039619,5.60814815 L305.039619,13.8111111 L297.82449,17.9125926 L290.60936,13.8111111 L290.60936,5.60814815 L297.82449,1.50666667 M297.82449,0.585925926 L289.807679,5.18962963 L289.807679,14.397037 L297.82449,19.0007407 L305.841299,14.397037 L305.841299,5.18962963 L297.82449,0.585925926 L297.82449,0.585925926 Z"/>
            </g>
            <g transform="translate(0 80.356)">
              <path d="M8.01680995,1.67407407 L15.2319389,5.77555556 L15.2319389,13.9785185 L8.01680995,18.08 L0.801680995,13.9785185 L0.801680995,5.85925926 L8.01680995,1.67407407 M8.01680995,0.753333333 L0,5.35703704 L0,14.5644444 L8.01680995,19.1681481 L16.0336199,14.5644444 L16.0336199,5.35703704 L8.01680995,0.753333333 L8.01680995,0.753333333 Z"/>
              <path d="M23.2487488,1.67407407 L30.4638778,5.77555556 L30.4638778,13.9785185 L23.2487488,18.08 L16.0336199,13.9785185 L16.0336199,5.85925926 L23.2487488,1.67407407 M23.2487488,0.753333333 L15.2319389,5.35703704 L15.2319389,14.5644444 L23.2487488,19.1681481 L31.2655588,14.5644444 L31.2655588,5.35703704 L23.2487488,0.753333333 L23.2487488,0.753333333 Z"/>
              <path d="M38.4806877,1.67407407 L45.6958167,5.77555556 L45.6958167,13.9785185 L38.4806877,18.08 L31.2655588,13.9785185 L31.2655588,5.85925926 L38.4806877,1.67407407 M38.4806877,0.753333333 L30.4638778,5.35703704 L30.4638778,14.5644444 L38.4806877,19.1681481 L46.4974977,14.5644444 L46.4974977,5.35703704 L38.4806877,0.753333333 L38.4806877,0.753333333 Z"/>
              <path d="M53.7126267,1.67407407 L60.9277556,5.77555556 L60.9277556,13.9785185 L53.7126267,18.08 L46.4974977,13.9785185 L46.4974977,5.85925926 L53.7126267,1.67407407 M53.7126267,0.753333333 L45.6958167,5.35703704 L45.6958167,14.5644444 L53.7126267,19.1681481 L61.7294366,14.5644444 L61.7294366,5.35703704 L53.7126267,0.753333333 L53.7126267,0.753333333 Z"/>
              <path d="M68.9445656,1.67407407 L76.1596945,5.77555556 L76.1596945,13.9785185 L68.9445656,18.08 L61.7294366,13.9785185 L61.7294366,5.85925926 L68.9445656,1.67407407 M68.9445656,0.753333333 L60.9277556,5.35703704 L60.9277556,14.5644444 L68.9445656,19.1681481 L76.9613756,14.5644444 L76.9613756,5.35703704 L68.9445656,0.753333333 L68.9445656,0.753333333 Z"/>
              <path d="M84.1765045,1.67407407 L91.3916334,5.77555556 L91.3916334,13.9785185 L84.1765045,18.08 L76.9613756,13.9785185 L76.9613756,5.85925926 L84.1765045,1.67407407 M84.1765045,0.753333333 L76.1596945,5.35703704 L76.1596945,14.5644444 L84.1765045,19.1681481 L92.1933144,14.5644444 L92.1933144,5.35703704 L84.1765045,0.753333333 L84.1765045,0.753333333 Z"/>
              <path d="M99.4084434,1.67407407 L106.623573,5.77555556 L106.623573,13.9785185 L99.4084434,18.08 L92.1933144,13.9785185 L92.1933144,5.85925926 L99.4084434,1.67407407 M99.4084434,0.753333333 L91.3916334,5.35703704 L91.3916334,14.5644444 L99.4084434,19.1681481 L107.425253,14.5644444 L107.425253,5.35703704 L99.4084434,0.753333333 L99.4084434,0.753333333 Z"/>
              <path d="M114.640382,1.67407407 L121.855512,5.77555556 L121.855512,13.9785185 L114.640382,18.08 L107.425253,13.9785185 L107.425253,5.85925926 L114.640382,1.67407407 M114.640382,0.753333333 L106.623573,5.35703704 L106.623573,14.5644444 L114.640382,19.1681481 L122.657193,14.5644444 L122.657193,5.35703704 L114.640382,0.753333333 L114.640382,0.753333333 Z"/>
              <path d="M129.872321,1.67407407 L137.08745,5.77555556 L137.08745,13.9785185 L129.872321,18.08 L122.657193,13.9785185 L122.657193,5.85925926 L129.872321,1.67407407 M129.872321,0.753333333 L121.855512,5.35703704 L121.855512,14.5644444 L129.872321,19.1681481 L137.889132,14.5644444 L137.889132,5.35703704 L129.872321,0.753333333 L129.872321,0.753333333 Z"/>
              <path d="M145.10426,1.67407407 L152.319389,5.77555556 L152.319389,13.9785185 L145.10426,18.08 L137.889132,13.9785185 L137.889132,5.85925926 L145.10426,1.67407407 M145.10426,0.753333333 L137.08745,5.35703704 L137.08745,14.5644444 L145.10426,19.1681481 L153.12107,14.5644444 L153.12107,5.35703704 L145.10426,0.753333333 L145.10426,0.753333333 Z"/>
              <path d="M160.336199,1.67407407 L167.551328,5.77555556 L167.551328,13.9785185 L160.336199,18.08 L153.12107,13.9785185 L153.12107,5.85925926 L160.336199,1.67407407 M160.336199,0.753333333 L152.319389,5.35703704 L152.319389,14.5644444 L160.336199,19.1681481 L168.353009,14.5644444 L168.353009,5.35703704 L160.336199,0.753333333 L160.336199,0.753333333 Z"/>
              <path d="M175.568138,1.67407407 L182.783267,5.77555556 L182.783267,13.9785185 L175.568138,18.08 L168.353009,13.9785185 L168.353009,5.85925926 L175.568138,1.67407407 M175.568138,0.753333333 L167.551328,5.35703704 L167.551328,14.5644444 L175.568138,19.1681481 L183.584948,14.5644444 L183.584948,5.35703704 L175.568138,0.753333333 L175.568138,0.753333333 Z"/>
              <path d="M190.800076,1.67407407 L198.015206,5.77555556 L198.015206,13.9785185 L190.800076,18.08 L183.584948,13.9785185 L183.584948,5.85925926 L190.800076,1.67407407 M190.800076,0.753333333 L182.783267,5.35703704 L182.783267,14.5644444 L190.800076,19.1681481 L198.816887,14.5644444 L198.816887,5.35703704 L190.800076,0.753333333 L190.800076,0.753333333 Z"/>
              <path d="M206.032016,1.67407407 L213.247145,5.77555556 L213.247145,13.9785185 L206.032016,18.08 L198.816887,13.9785185 L198.816887,5.85925926 L206.032016,1.67407407 M206.032016,0.753333333 L198.015206,5.35703704 L198.015206,14.5644444 L206.032016,19.1681481 L214.048826,14.5644444 L214.048826,5.35703704 L206.032016,0.753333333 L206.032016,0.753333333 Z"/>
              <path d="M221.263955,1.67407407 L228.479083,5.77555556 L228.479083,13.9785185 L221.263955,18.08 L214.048826,13.9785185 L214.048826,5.85925926 L221.263955,1.67407407 M221.263955,0.753333333 L213.247145,5.35703704 L213.247145,14.5644444 L221.263955,19.1681481 L229.280765,14.5644444 L229.280765,5.35703704 L221.263955,0.753333333 L221.263955,0.753333333 Z"/>
              <path d="M236.495894,1.67407407 L243.711022,5.77555556 L243.711022,13.9785185 L236.495894,18.08 L229.280765,13.9785185 L229.280765,5.85925926 L236.495894,1.67407407 M236.495894,0.753333333 L228.479083,5.35703704 L228.479083,14.5644444 L236.495894,19.1681481 L244.512703,14.5644444 L244.512703,5.35703704 L236.495894,0.753333333 L236.495894,0.753333333 Z"/>
              <path d="M251.727833,1.67407407 L258.942961,5.77555556 L258.942961,13.9785185 L251.727833,18.08 L244.512703,13.9785185 L244.512703,5.85925926 L251.727833,1.67407407 M251.727833,0.753333333 L243.711022,5.35703704 L243.711022,14.5644444 L251.727833,19.1681481 L259.744642,14.5644444 L259.744642,5.35703704 L251.727833,0.753333333 L251.727833,0.753333333 Z"/>
              <path d="M266.959771,1.67407407 L274.1749,5.77555556 L274.1749,13.9785185 L266.959771,18.08 L259.744642,13.9785185 L259.744642,5.85925926 L266.959771,1.67407407 M266.959771,0.753333333 L258.942961,5.35703704 L258.942961,14.5644444 L266.959771,19.1681481 L274.976581,14.5644444 L274.976581,5.35703704 L266.959771,0.753333333 L266.959771,0.753333333 Z"/>
              <path d="M282.19171,1.67407407 L289.40684,5.77555556 L289.40684,13.9785185 L282.19171,18.08 L274.976581,13.9785185 L274.976581,5.85925926 L282.19171,1.67407407 M282.19171,0.753333333 L274.1749,5.35703704 L274.1749,14.5644444 L282.19171,19.1681481 L290.20852,14.5644444 L290.20852,5.35703704 L282.19171,0.753333333 L282.19171,0.753333333 Z"/>
              <path d="M297.423649,1.67407407 L304.638778,5.77555556 L304.638778,13.9785185 L297.423649,18.08 L290.20852,13.9785185 L290.20852,5.85925926 L297.423649,1.67407407 M297.423649,0.753333333 L289.40684,5.35703704 L289.40684,14.5644444 L297.423649,19.1681481 L305.440459,14.5644444 L305.440459,5.35703704 L297.423649,0.753333333 L297.423649,0.753333333 Z"/>
            </g>
            <g transform="translate(7.215 93.748)">
              <path d="M8.41765045,1.75777778 L15.6327794,5.85925926 L15.6327794,14.0622222 L8.41765045,18.1637037 L1.20252149,14.0622222 L1.20252149,5.85925926 L8.41765045,1.75777778 M8.41765045,0.753333333 L0.400840497,5.35703704 L0.400840497,14.5644444 L8.41765045,19.1681481 L16.4344604,14.5644444 L16.4344604,5.35703704 L8.41765045,0.753333333 L8.41765045,0.753333333 Z"/>
              <path d="M23.6495894,1.75777778 L30.8647183,5.85925926 L30.8647183,14.0622222 L23.6495894,18.1637037 L16.4344604,14.0622222 L16.4344604,5.85925926 L23.6495894,1.75777778 M23.6495894,0.753333333 L15.6327794,5.35703704 L15.6327794,14.5644444 L23.6495894,19.1681481 L31.6663993,14.5644444 L31.6663993,5.35703704 L23.6495894,0.753333333 L23.6495894,0.753333333 Z"/>
              <path d="M38.8815283,1.75777778 L46.0966572,5.85925926 L46.0966572,14.0622222 L38.8815283,18.1637037 L31.6663993,14.0622222 L31.6663993,5.85925926 L38.8815283,1.75777778 M38.8815283,0.753333333 L30.8647183,5.35703704 L30.8647183,14.5644444 L38.8815283,19.1681481 L46.8983382,14.5644444 L46.8983382,5.35703704 L38.8815283,0.753333333 L38.8815283,0.753333333 Z"/>
              <path d="M54.1134671,1.75777778 L61.3285962,5.85925926 L61.3285962,14.0622222 L54.1134671,18.1637037 L46.8983382,14.0622222 L46.8983382,5.85925926 L54.1134671,1.75777778 M54.1134671,0.753333333 L46.0966572,5.35703704 L46.0966572,14.5644444 L54.1134671,19.1681481 L62.1302771,14.5644444 L62.1302771,5.35703704 L54.1134671,0.753333333 L54.1134671,0.753333333 Z"/>
              <path d="M69.3454061,1.75777778 L76.560535,5.85925926 L76.560535,14.0622222 L69.3454061,18.1637037 L62.1302771,14.0622222 L62.1302771,5.85925926 L69.3454061,1.75777778 M69.3454061,0.753333333 L61.3285962,5.35703704 L61.3285962,14.5644444 L69.3454061,19.1681481 L77.362216,14.5644444 L77.362216,5.35703704 L69.3454061,0.753333333 L69.3454061,0.753333333 Z"/>
              <path d="M84.577345,1.75777778 L91.7924739,5.85925926 L91.7924739,14.0622222 L84.577345,18.1637037 L77.362216,14.0622222 L77.362216,5.85925926 L84.577345,1.75777778 M84.577345,0.753333333 L76.560535,5.35703704 L76.560535,14.5644444 L84.577345,19.1681481 L92.594155,14.5644444 L92.594155,5.35703704 L84.577345,0.753333333 L84.577345,0.753333333 Z"/>
              <path d="M99.8092839,1.75777778 L107.024412,5.85925926 L107.024412,14.0622222 L99.8092839,18.1637037 L92.594155,14.0622222 L92.594155,5.85925926 L99.8092839,1.75777778 M99.8092839,0.753333333 L91.7924739,5.35703704 L91.7924739,14.5644444 L99.8092839,19.1681481 L107.826093,14.5644444 L107.826093,5.35703704 L99.8092839,0.753333333 L99.8092839,0.753333333 Z"/>
              <path d="M115.041223,1.75777778 L122.256352,5.85925926 L122.256352,14.0622222 L115.041223,18.1637037 L107.826093,14.0622222 L107.826093,5.85925926 L115.041223,1.75777778 M115.041223,0.753333333 L107.024412,5.35703704 L107.024412,14.5644444 L115.041223,19.1681481 L123.058032,14.5644444 L123.058032,5.35703704 L115.041223,0.753333333 L115.041223,0.753333333 Z"/>
              <path d="M130.273162,1.75777778 L137.488291,5.85925926 L137.488291,14.0622222 L130.273162,18.1637037 L123.058032,14.0622222 L123.058032,5.85925926 L130.273162,1.75777778 M130.273162,0.753333333 L122.256352,5.35703704 L122.256352,14.5644444 L130.273162,19.1681481 L138.289972,14.5644444 L138.289972,5.35703704 L130.273162,0.753333333 L130.273162,0.753333333 Z"/>
              <path d="M145.5051,1.75777778 L152.72023,5.85925926 L152.72023,14.0622222 L145.5051,18.1637037 L138.289972,14.0622222 L138.289972,5.85925926 L145.5051,1.75777778 M145.5051,0.753333333 L137.488291,5.35703704 L137.488291,14.5644444 L145.5051,19.1681481 L153.521911,14.5644444 L153.521911,5.35703704 L145.5051,0.753333333 L145.5051,0.753333333 Z"/>
              <path d="M160.737039,1.75777778 L167.952169,5.85925926 L167.952169,14.0622222 L160.737039,18.1637037 L153.521911,14.0622222 L153.521911,5.85925926 L160.737039,1.75777778 M160.737039,0.753333333 L152.72023,5.35703704 L152.72023,14.5644444 L160.737039,19.1681481 L168.75385,14.5644444 L168.75385,5.35703704 L160.737039,0.753333333 L160.737039,0.753333333 Z"/>
              <path d="M175.968978,1.75777778 L183.184107,5.85925926 L183.184107,14.0622222 L175.968978,18.1637037 L168.75385,14.0622222 L168.75385,5.85925926 L175.968978,1.75777778 M175.968978,0.753333333 L167.952169,5.35703704 L167.952169,14.5644444 L175.968978,19.1681481 L183.985789,14.5644444 L183.985789,5.35703704 L175.968978,0.753333333 L175.968978,0.753333333 Z"/>
              <path d="M191.200917,1.75777778 L198.416046,5.85925926 L198.416046,14.0622222 L191.200917,18.1637037 L183.985789,14.0622222 L183.985789,5.85925926 L191.200917,1.75777778 M191.200917,0.753333333 L183.184107,5.35703704 L183.184107,14.5644444 L191.200917,19.1681481 L199.217727,14.5644444 L199.217727,5.35703704 L191.200917,0.753333333 L191.200917,0.753333333 Z"/>
              <path d="M206.432856,1.75777778 L213.647985,5.85925926 L213.647985,14.0622222 L206.432856,18.1637037 L199.217727,14.0622222 L199.217727,5.85925926 L206.432856,1.75777778 M206.432856,0.753333333 L198.416046,5.35703704 L198.416046,14.5644444 L206.432856,19.1681481 L214.449666,14.5644444 L214.449666,5.35703704 L206.432856,0.753333333 L206.432856,0.753333333 Z"/>
              <path d="M221.664796,1.75777778 L228.879924,5.85925926 L228.879924,14.0622222 L221.664796,18.1637037 L214.449666,14.0622222 L214.449666,5.85925926 L221.664796,1.75777778 M221.664796,0.753333333 L213.647985,5.35703704 L213.647985,14.5644444 L221.664796,19.1681481 L229.681605,14.5644444 L229.681605,5.35703704 L221.664796,0.753333333 L221.664796,0.753333333 Z"/>
              <path d="M236.896734,1.75777778 L244.111863,5.85925926 L244.111863,14.0622222 L236.896734,18.1637037 L229.681605,14.0622222 L229.681605,5.85925926 L236.896734,1.75777778 M236.896734,0.753333333 L228.879924,5.35703704 L228.879924,14.5644444 L236.896734,19.1681481 L244.913544,14.5644444 L244.913544,5.35703704 L236.896734,0.753333333 L236.896734,0.753333333 Z"/>
              <path d="M252.128673,1.75777778 L259.343802,5.85925926 L259.343802,14.0622222 L252.128673,18.1637037 L244.913544,14.0622222 L244.913544,5.85925926 L252.128673,1.75777778 M252.128673,0.753333333 L244.111863,5.35703704 L244.111863,14.5644444 L252.128673,19.1681481 L260.145483,14.5644444 L260.145483,5.35703704 L252.128673,0.753333333 L252.128673,0.753333333 Z"/>
              <path d="M267.360612,1.75777778 L274.57574,5.85925926 L274.57574,14.0622222 L267.360612,18.1637037 L260.145483,14.0622222 L260.145483,5.85925926 L267.360612,1.75777778 M267.360612,0.753333333 L259.343802,5.35703704 L259.343802,14.5644444 L267.360612,19.1681481 L275.377422,14.5644444 L275.377422,5.35703704 L267.360612,0.753333333 L267.360612,0.753333333 Z"/>
              <path d="M282.592551,1.75777778 L289.807679,5.85925926 L289.807679,14.0622222 L282.592551,18.1637037 L275.377422,14.0622222 L275.377422,5.85925926 L282.592551,1.75777778 M282.592551,0.753333333 L274.57574,5.35703704 L274.57574,14.5644444 L282.592551,19.1681481 L290.60936,14.5644444 L290.60936,5.35703704 L282.592551,0.753333333 L282.592551,0.753333333 Z"/>
              <path d="M297.82449,1.75777778 L305.039619,5.85925926 L305.039619,14.0622222 L297.82449,18.1637037 L290.60936,14.0622222 L290.60936,5.85925926 L297.82449,1.75777778 M297.82449,0.753333333 L289.807679,5.35703704 L289.807679,14.5644444 L297.82449,19.1681481 L305.841299,14.5644444 L305.841299,5.35703704 L297.82449,0.753333333 L297.82449,0.753333333 Z"/>
            </g>
          </g>
          <polyline stroke="#FFF" stroke-width="7.89" points="33.015 117.3 33.015 .3 343.159 .3 343.159 117.3"/>
        </g>
      </g>
    </g>
  </g>
</svg>